/* XPM */
static char *ca930d015f204f9cf70e3141d27d878bz6iRVYRmxevN2YKn[] = {
/* columns rows colors chars-per-pixel */
"64 64 252 2 ",
"   c None",
".  c #313131",
"X  c #363E34",
"o  c #3B3B34",
"O  c #3D3B34",
"+  c #3C3B35",
"@  c #3C3C34",
"#  c #3F3E37",
"$  c #423F35",
"%  c #3B4937",
"&  c #3B4838",
"*  c #3E4E39",
"=  c #39513B",
"-  c #3D633F",
";  c #464534",
":  c #46443A",
">  c #4A483B",
",  c #4E4C3D",
"<  c #514F39",
"1  c #40533B",
"2  c #57543B",
"3  c #55533E",
"4  c #625A3B",
"5  c #655D3C",
"6  c #46603E",
"7  c #646037",
"8  c #6A6638",
"9  c #6B673C",
"0  c #6E663F",
"q  c #5B5741",
"w  c #5E5941",
"e  c #605A40",
"r  c #456640",
"t  c #446740",
"y  c #4E6541",
"u  c #446E42",
"i  c #4A6A41",
"p  c #4C6B42",
"a  c #4B6E42",
"s  c #4A6F42",
"d  c #536E44",
"f  c #407043",
"g  c #447143",
"h  c #477745",
"j  c #4C7243",
"k  c #4E7343",
"l  c #4A7544",
"z  c #4B7745",
"x  c #427B47",
"c  c #477A47",
"v  c #4C7B46",
"b  c #4C7F47",
"n  c #5F7447",
"m  c #517B45",
"M  c #527C45",
"N  c #557F49",
"B  c #676246",
"V  c #6C674A",
"C  c #776D44",
"Z  c #7B6F41",
"A  c #796E42",
"S  c #716B4B",
"D  c #736C48",
"F  c #756E4B",
"G  c #736E4D",
"H  c #617449",
"J  c #6B7A4B",
"K  c #6D7A4D",
"L  c #787543",
"P  c #7A7644",
"I  c #7B7646",
"U  c #78734E",
"Y  c #827542",
"T  c #887A44",
"R  c #8E7F45",
"E  c #80774C",
"W  c #837E52",
"Q  c #45874A",
"!  c #4C8348",
"~  c #48874A",
"^  c #4D874A",
"/  c #498B4B",
"(  c #4D884A",
")  c #4D8B4B",
"_  c #4D8C4B",
"`  c #4E8C4B",
"'  c #528347",
"]  c #568647",
"[  c #568747",
"{  c #578847",
"}  c #578A48",
"|  c #4E924D",
" . c #48954E",
".. c #4E964E",
"X. c #4A9B4F",
"o. c #4F9C4F",
"O. c #5B9448",
"+. c #5B944A",
"@. c #5E994B",
"#. c #549D52",
"$. c #64924C",
"%. c #609F4C",
"&. c #7E8250",
"*. c #52A052",
"=. c #58A555",
"-. c #4FB256",
";. c #4FB257",
":. c #67B251",
">. c #6EBE53",
",. c #67C156",
"<. c #6FC254",
"1. c #68C859",
"2. c #71C555",
"3. c #71C655",
"4. c #73CB56",
"5. c #75CF57",
"6. c #76D357",
"7. c #9C933F",
"8. c #8A8247",
"9. c #8F824A",
"0. c #958546",
"q. c #918349",
"w. c #918749",
"e. c #978C4A",
"r. c #938D51",
"t. c #948B5A",
"y. c #9A9159",
"u. c #99905B",
"i. c #9A915A",
"p. c #9C9259",
"a. c #9E9459",
"s. c #9F9658",
"d. c #A79E40",
"f. c #A7954A",
"g. c #AC9B4C",
"h. c #A59757",
"j. c #A29857",
"k. c #A69857",
"l. c #A89957",
"z. c #A89A57",
"x. c #AD9D56",
"c. c #A29858",
"v. c #A39959",
"b. c #A69858",
"n. c #A59C5C",
"m. c #A9A04B",
"M. c #B6AC42",
"N. c #B7AC42",
"B. c #B6AD4F",
"V. c #BDA84F",
"C. c #ABA156",
"Z. c #ADA056",
"A. c #AEA356",
"S. c #ACA058",
"D. c #AEA55F",
"F. c #B3A155",
"G. c #B1A056",
"H. c #B2A156",
"J. c #B3A156",
"K. c #B5A355",
"L. c #B2A755",
"P. c #B6A455",
"I. c #B7A455",
"U. c #BAA755",
"Y. c #B5A955",
"T. c #B7AC54",
"R. c #BFA950",
"E. c #BDA954",
"W. c #BEB255",
"Q. c #A49B61",
"!. c #AFA660",
"~. c #B9AF65",
"^. c #B4AB6B",
"/. c #B1AC6E",
"(. c #BDB462",
"). c #BAB16F",
"_. c #C2AC53",
"`. c #C4AD53",
"'. c #C7AF53",
"]. c #C7B253",
"[. c #CAB252",
"{. c #CDB452",
"}. c #CEB552",
"|. c #C6BA52",
" X c #C3B45C",
".X c #D1BA52",
"XX c #D3BD51",
"oX c #D3BD52",
"OX c #D4BE52",
"+X c #C0B766",
"@X c #C8BF63",
"#X c #C5BC68",
"$X c #DDC84F",
"%X c #CFC250",
"&X c #CBC05C",
"*X c #CBC15F",
"=X c #D7C050",
"-X c #D1C450",
";X c #D5C652",
":X c #DAC450",
">X c #DACC51",
",X c #DACE55",
"<X c #D1C65A",
"1X c #D8CA5F",
"2X c #E6D74C",
"3X c #EEDF4B",
"4X c #EFDF4B",
"5X c #E8D84C",
"6X c #E4D350",
"7X c #E0D452",
"8X c #E2D452",
"9X c #E5D550",
"0X c #E6D550",
"qX c #E8DA50",
"wX c #E2D65A",
"eX c #EADD5D",
"rX c #F3E34B",
"tX c #F3E44A",
"yX c #F4E44B",
"uX c #F6E64A",
"iX c #F1E24C",
"pX c #F2E24C",
"aX c #F6E74D",
"sX c #F7E74F",
"dX c #F7E750",
"fX c #F7E855",
"gX c #F7E856",
"hX c #F8EA5C",
"jX c #CAC16D",
"kX c #D5C961",
"lX c #D4CB7D",
"zX c #DED470",
"xX c #DFD57E",
"cX c #E3DA7F",
"vX c #F5E763",
"bX c #F9EC64",
"nX c #F7EB74",
"mX c #FBEE71",
"MX c #F4E97F",
"NX c #FCF077",
"BX c #E8DF88",
"VX c #EEE588",
"CX c #F2E98D",
"ZX c #F7EE8E",
"AX c #F8EF8F",
"SX c #FDF180",
"DX c #FDF48B",
"FX c #FEF48C",
"GX c #FEF58E",
"HX c #FAF190",
"JX c #FDF493",
"KX c #FFF694",
/* pixels */
"                                                                                                                                ",
"                                                                                                                                ",
"                                                                                                                                ",
"                                                                                                                                ",
"                                                                                                                                ",
"                                                                                                                                ",
"                                                                                                                                ",
"                                                                                                                                ",
"                                                                                                                                ",
"                                                                                                                                ",
"                                                                                                                                ",
"                                                                                                                                ",
"                                                                                                                                ",
"                                                                                                                                ",
"                                                                                                                                ",
"                                                                                                                                ",
"                                                                                                                                ",
"                                                                                                                                ",
"                                                                                                                                ",
"                                                                                                                                ",
"                                                                    . .   . .                                                   ",
"                                                                  .  .t X Q X.- .                                               ",
"                                                                  . -.z Q -.../ u %                                             ",
"                                                            . . . O.` a ! ) z o.) * .                                           ",
"                                                        . ; d.d.1 6.j p %.m ` | z h f                                           ",
"                                                      3 I 7.rX,XK 1.j @.5.] ^ v i b g .                                         ",
"                                                  7 9 W zXbXvX<Xt.#.a 4.>.M ] O.m 6 & .                                         ",
"                                                8 B.kX~.SXKXGXbXT.J p ,.' } 3.3.{ t = .                                         ",
"                                              . m.NXxXW.eXVXBXKXhXv.H *.) :.2.$.y c x                                           ",
"                                              + /.KXMX1X#X+XQ.CXKXjXc.n =.N d U q . .                                           ",
"                                            . V lXKXKXKXKXAX+Xu.KXaXuXA.i.a.c.U.Z $                                             ",
"                                            . V lXKXKXKXKXKXZX(.KXsXuXuX*XqX9X=X{.Y .                                           ",
"                                          . M.$X X(.S.).KXKXZX(.uXuXuXuXuXuX:X{.}.Y .                                           ",
"                                          . M.tXnXHXcXD.^.KXDXpXa.4XuXuXuX2XoX{.}.Y .                                           ",
"                                          . r.8XaXmXJXBXjXFXdXuX4Xj.u.p.u.u.E.{.x.B .                                           ",
"                                          . U -XuXdXfXwX*XfXuXuXuX5X5X;X].`.w.g.A @                                             ",
"                                          . G j.C.%XuX8X|.sXsXuXuXuX2XOX{.{.8.P 3 .                                             ",
"                                            : 9.h.a.|.rX>XY.uX9X=XOX.X{.{.{.V.0 o                                               ",
"                                            . R _.z.C.:XOXU.L.S.b.k.k.'.{.{.K.2                                                 ",
"                                              4 f.H.k.{.{.[.I.K.I.I.K.e._.K.D ,                                                 ",
"                                                4 q.J.I.}.{.{.{.{.{.{.I 0 w :                                                   ",
"                                                  5 C E G.G.K.{.{.{.T 2 @ .                                                     ",
"                                                    . , S S G 0.0.0.O .                                                         ",
"                                                        . . . . . .                                                             ",
"                                                                                                                                ",
"                                                                                                                                ",
"                                                                                                                                ",
"                                                                                                                                ",
"                                                                                                                                ",
"                                                                                                                                ",
"                                                                                                                                ",
"                                                                                                                                ",
"                                                                                                                                ",
"                                                                                                                                ",
"                                                                                                                                ",
"                                                                                                                                ",
"                                                                                                                                ",
"                                                                                                                                ",
"                                                                                                                                ",
"                                                                                                                                ",
"                                                                                                                                ",
"                                                                                                                                ",
"                                                                                                                                ",
"                                                                                                                                "
};
