/* XPM */
static char *result[] = {
/* columns rows colors chars-per-pixel */
"64 64 12 1 ",
"  c black",
". c #D03800",
"X c #A06800",
"o c #D8B000",
"O c #F8F000",
"+ c #F88058",
"@ c #303888",
"# c #485890",
"$ c #6080A8",
"% c #B8C8F0",
"& c #F8F8F8",
"* c None",
/* pixels */
"****************************************************************",
"****************************************************************",
"****************************************************************",
"****************************************************************",
"****************************************************************",
"****************************************************************",
"****************************************************************",
"****************************************************************",
"****************************************************************",
"****************************************************************",
"****************************************************************",
"****************************************************************",
"****************************************************************",
"****************************************************************",
"****************************************************************",
"****************************************************************",
"****************************************************************",
"****************************************************************",
"****************************************************************",
"**************************************  ************************",
"****************************   ****** %% ***********************",
"*************************** @## **** %%%% **********************",
"***************************    @ *** %%%% **********************",
"*******************************  *** %%%%% *********************",
"*****************************    ** %%%%%  *********************",
"**************************** $$$# * %%%$$&& ********************",
"**************************** @@@@X  %%$&&&& ********************",
"*************************     oO#@X %$&&&&% ********************",
"*********************    $$  OOOOoX%$&&&%% *********************",
"******************** $%&&&& oO+.oOX$&&%%%% *********************",
"*********************    $$ XO&+.OX$%%%%% **********************",
"*************************     +.  X%%%%$$ **********************",
"******************************   @XX$$$%&& *********************",
"**************************     X #oX%%&&%% *********************",
"**********************    $$%%&  #o  %%%% **********************",
"********************* $%&&&&&&&@# X *    ***********************",
"**********************    $$$$%   X ****************************",
"************************       # o *****************************",
"*********************** OOoXOo # o *****************************",
"************************  OXo # X ******************************",
"**************************    #  *******************************",
"**************************** # *********************************",
"*************************** @ **********************************",
"************************** @ ***********************************",
"*************************** ************************************",
"****************************************************************",
"****************************************************************",
"****************************************************************",
"****************************************************************",
"****************************************************************",
"****************************************************************",
"****************************************************************",
"****************************************************************",
"****************************************************************",
"****************************************************************",
"****************************************************************",
"****************************************************************",
"****************************************************************",
"****************************************************************",
"****************************************************************",
"****************************************************************",
"****************************************************************",
"****************************************************************",
"****************************************************************"
};
