/* XPM */
static char *fc6053c7c19245068ffe43b679e20ceeT05gwvUeXhfL2E5k[] = {
/* columns rows colors chars-per-pixel */
"64 64 151 2 ",
"   c None",
".  c #01011D",
"X  c #020222",
"o  c #070A25",
"O  c #080A26",
"+  c #0D0F29",
"@  c #0E122A",
"#  c #11152B",
"$  c #141A2E",
"%  c #13202E",
"&  c #1C2634",
"*  c #1E2936",
"=  c #222F36",
"-  c #21213C",
";  c #25313A",
":  c #28373C",
">  c #2B3C3E",
",  c #263D3D",
"<  c #272540",
"1  c #3C3C56",
"2  c #344A46",
"3  c #394D49",
"4  c #355144",
"5  c #395046",
"6  c #3A594D",
"7  c #3C524D",
"8  c #3E5C50",
"9  c #404055",
"0  c #464B5A",
"q  c #425C51",
"w  c #466152",
"e  c #4C6D55",
"r  c #4B7356",
"t  c #567A5A",
"y  c #597C5E",
"u  c #474760",
"i  c #474861",
"p  c #5C606F",
"a  c #458C47",
"s  c #468D49",
"d  c #4A8D4A",
"f  c #518D4B",
"g  c #4D904F",
"h  c #5A944C",
"j  c #4D9552",
"k  c #519754",
"l  c #529957",
"z  c #539D5C",
"x  c #589E5C",
"c  c #609A52",
"v  c #629E5D",
"b  c #6B9C53",
"n  c #739852",
"m  c #5BA15E",
"M  c #72A153",
"N  c #7DA755",
"B  c #5F8963",
"V  c #5D8362",
"C  c #5E9A68",
"Z  c #6B9A6C",
"A  c #709F6F",
"S  c #56A362",
"D  c #5CA564",
"F  c #5CAB6C",
"G  c #64A664",
"H  c #65AA67",
"J  c #61A76C",
"K  c #6FA06E",
"L  c #62AE6E",
"P  c #6CAD68",
"I  c #72AB66",
"U  c #64B06F",
"Y  c #6FB06D",
"T  c #62AF71",
"R  c #72A372",
"E  c #74AC73",
"W  c #67B173",
"Q  c #6CB473",
"!  c #69B379",
"~  c #72B574",
"^  c #73B877",
"/  c #7BBA77",
"(  c #7EB579",
")  c #76B878",
"_  c #7BBD7A",
"`  c #7FC07C",
"'  c #81A256",
"]  c #81A854",
"[  c #83AA58",
"{  c #94B359",
"}  c #9CBA5B",
"|  c #8EB669",
" . c #8DB565",
".. c #96BD6C",
"X. c #82BA77",
"o. c #80B67B",
"O. c #85BD7E",
"+. c #92BF74",
"@. c #A7C15D",
"#. c #A9C35D",
"$. c #9BC56E",
"%. c #8BC077",
"&. c #83C27E",
"*. c #9DC779",
"=. c #9EC879",
"-. c #AEC563",
";. c #B9C667",
":. c #BBC869",
">. c #B2C465",
",. c #A7C77C",
"<. c #A2CB7E",
"1. c #B4CE7C",
"2. c #BFD372",
"3. c #BCD47C",
"4. c #C0CF70",
"5. c #C3D375",
"6. c #74B784",
"7. c #82B584",
"8. c #91BB93",
"9. c #A1A8AA",
"0. c #B1BDB4",
"q. c #87C580",
"w. c #89C681",
"e. c #8CC882",
"r. c #9CCB82",
"t. c #94CB81",
"y. c #ACCD86",
"u. c #BED981",
"i. c #A5D39A",
"p. c #B0CCB4",
"a. c #C4DA81",
"s. c #CDDF81",
"d. c #CEE093",
"f. c #D3E395",
"g. c #C2DBC3",
"h. c #DBDBDD",
"j. c #D1E7CF",
"k. c #CBE4D4",
"l. c #D2E4D3",
"z. c #D9ECDB",
"x. c #ECF1DA",
"c. c #DDDEE2",
"v. c #E0E2E3",
"b. c #E5E4E9",
"n. c #ECEDED",
"m. c #E4EDE4",
"M. c #E9F2E7",
"N. c #EDF6EC",
"B. c #F3F7E4",
"V. c #F1F9F3",
"C. c #FFFFFF",
/* pixels */
"                                                                                                                                ",
"                                                                                                                                ",
"                                                                                                                                ",
"                                                                                                                                ",
"                                                                                                                                ",
"                                                                                                                                ",
"                                                                                                                                ",
"                                                                                                                                ",
"                                                                                                                                ",
"                                                                                                                                ",
"                                                                                                                                ",
"                                                                                                                                ",
"                                                                                                                                ",
"                                                                                                                                ",
"                                                                                                                                ",
"                                                                                                                                ",
"                                                                                                                                ",
"                                                                                                                                ",
"                                                                X X X X X X X . X                                               ",
"                                                            X X $ , 6 e r r 6 2 * X                                             ",
"                                                        X o 4 C 6.W F S S S z F ) Z $ X                                         ",
"                                                      . - 9.m.N.V.7.s a a a j F L _ K @ X                                       ",
"                                                    X i c.C.C.C.C.p.a a s m F T F F _ t X                                       ",
"                                                  X 0 v.C.C.C.C.C.g.a j S F F F F F U R o                                       ",
"                                                X p n.C.C.C.C.C.C.8.C ` / F F U =.%.U ( o                                       ",
"                                              X 9 h.C.C.C.C.C.C.l.F ^ e.w.` U =.3.Q W O.@                                       ",
"                                            X i b.C.C.C.C.C.C.k.T T &.e.e.t.u.s.<.O./ &.#                                       ",
"                                          X 1 h.C.C.C.C.C.C.z.! F W e.e.r.a.s.3.X.e._ 7.+                                       ",
"                                        . < n.C.C.C.C.C.C.z.! F F _ t.r.a.s.5.$.e.e.) o.o                                       ",
"                                        o 0.C.C.C.C.C.C.x.y.,.u.u.a.s.s.s.s.1.Y e.e.) R o                                       ",
"                                      X 5 i.C.C.C.C.C.B.f.s.s.s.s.s.s.s.s.5...Y e.e.^ y X                                       ",
"                                      o E e.l.V.M.l.g.d.5.s.s.s.s.s.s.s.s.3.v &.e.q.^ 2 X                                       ",
"                                      @ &.w.F m d s  .5.5.2.5.4.2.:.;.>.-.[ x &._ Q E $                                         ",
"                                      * e.` m a s h } #.#.#.#.#.#.#.#.#.{ f z F F U e X                                         ",
"                                    X > e.Y a a s ] #.#.@.N n b P C f s a a a s D E O                                           ",
"                                    X 3 e.G a a h } #.#.M s z L F F l a a a s k E ; X                                           ",
"                                    X 7 w.F a a ] @.#.../ &.e.Q F F F z s a j ~ q X                                             ",
"                                    X q q.F a g } #.-.&.e.e.e.T T F F F z l ^ V o                                               ",
"                                    X q ` S a M -.$.e.e.e.e.) S F F F F F Q Z #                                                 ",
"                                    X 3 ` S a { $.e.e.e.t.&.m d F F F F Q E = .                                                 ",
"                                    X ; q.F c +.e.e.&./ H l a z F F F W R * .                                                   ",
"                                      X t ` ^ ^ G l g g a a j F F F Q Z & X                                                     ",
"                                        O B O.Q W W Q Q Q ^ ^ _ &.( r @ X                                                       ",
"                                          O y ( e.e.e.e.&.e.X.Z w $ X                                                           ",
"                                            X @ * : > > ; & @ X X                                                               ",
"                                                                                                                                ",
"                                                                                                                                ",
"                                                                                                                                ",
"                                                                                                                                ",
"                                                                                                                                ",
"                                                                                                                                ",
"                                                                                                                                ",
"                                                                                                                                ",
"                                                                                                                                ",
"                                                                                                                                ",
"                                                                                                                                ",
"                                                                                                                                ",
"                                                                                                                                ",
"                                                                                                                                ",
"                                                                                                                                ",
"                                                                                                                                ",
"                                                                                                                                ",
"                                                                                                                                ",
"                                                                                                                                "
};
