/* XPM */
static char *_f7b7ab432004325f6e846d176cf3ecc5qWTOFh5LB7ANwV3[] = {
/* columns rows colors chars-per-pixel */
"64 64 58 1 ",
"  c None",
". c black",
"X c gray3",
"o c #0C0C0C",
"O c #181818",
"+ c gray11",
"@ c #200D01",
"# c #38271C",
"$ c #202020",
"% c #3C3C3C",
"& c #401A01",
"* c #502F19",
"= c #504238",
"- c #704529",
"; c gray25",
": c gray33",
"> c #606060",
", c #747474",
"< c #803402",
"1 c #8F3B02",
"2 c #803D12",
"3 c #9F4103",
"4 c #8F491A",
"5 c #9F4A12",
"6 c #AF4803",
"7 c #B74B03",
"8 c #BF4E03",
"9 c #CF5503",
"0 c #DF5B04",
"q c #E75E04",
"w c #F76504",
"e c #FF6804",
"r c #FF7B23",
"t c #805A41",
"y c #806D60",
"u c #FF8433",
"i c #FF893B",
"p c #FF9752",
"a c #FFA162",
"s c #808080",
"d c #9F9690",
"f c #9B9B9B",
"g c #9F9F9F",
"h c #AFAFAF",
"j c #B7B7B7",
"k c gray75",
"l c #FFB482",
"z c #FFBD91",
"x c #FFC6A1",
"c c #C3C3C3",
"v c gray81",
"b c #D7D7D7",
"n c #DFDFDF",
"m c #FFD9C0",
"M c #E7E7E7",
"N c #FFECE0",
"B c #FFFAF7",
"V c white",
/* pixels */
"                                                                ",
"                                                                ",
"                                                                ",
"                                                                ",
"                             $.....                             ",
"                        kssss2<<<<<ssssn                        ",
"                       by&&&&qeeeee&&&&dv                       ",
"                       ><eeeeeeeeeeeeee&;                       ",
"                     v;40eeeeeeeeeeeeee95;                      ",
"                     k.3eeeeeeeeeeeeeeee8.                      ",
"                     k.3eeeeeeeeeeeeeeee8.                      ",
"                    ;&eeeeeeeeeeexVVreeeee.s                    ",
"                    ;&eeeeeeeeeeeplVzaeeee.s                    ",
"                    ;&eeeeeeeeeeeeemBmeeee.s                    ",
"                    ;&eeeeeeeeeeeeeeNmeeee.s                    ",
"                    ;&eeeeeeeeeeeeeeiueeee.s                    ",
"                    ;&eeeeeeeeeeeeeeeeeeee.s                    ",
"                    ;&eeeeeeeeeeeeeeeeeeee.s                    ",
"                    ;&eeeeeeeeeeeeeeeeeeee.s                    ",
"                    ;&eeeeeeeeeeeeeeeeeeee.s                    ",
"                    ;&eeeeeeeeeeeeeeeeeeee.s                    ",
"                    ;&eeeeeeeeeeeeeeeeeeee.s                    ",
"                    vd&7eeeeeeeeeeeeeeee9&kn                    ",
"                     k.3eeeeeeeeeeeeeeee8.                      ",
"                     k.3eeeeeeeeeeeeeeee8.                      ",
"                       ><eeeeeeeeeeeeee&;                       ",
"                       ht<<6eeeeeeee1<<yg                       ",
"                        g;;-8weeeee8=;;v                        ",
"                           g.0eeeee.n                           ",
"                           Mk*&&&&&k                            ",
"                            n#@@@@@n                            ",
"                           g.0eeeee.n                           ",
"                           g........n                           ",
"                           g........n                           ",
"                           j;;OX;;;;M                           ",
"                              >$                                ",
"                              >$                                ",
"                              >$                                ",
"                              >$                                ",
"                              >..g                              ",
"                              f:.g                              ",
"                               n.g                              ",
"                               n.g                              ",
"                               n.g                              ",
"                               n.g                              ",
"                               n.g                              ",
"                              ,+.g                              ",
"                              >o>c                              ",
"                              >$                                ",
"                              >$                                ",
"                              >$                                ",
"                              >$                                ",
"                              >$                                ",
"                              >$                                ",
"                              >$                                ",
"                              >$                                ",
"                              >$                                ",
"                              >$                                ",
"                              ,%                                ",
"                                                                ",
"                                                                ",
"                                                                ",
"                                                                ",
"                                                                "
};
