/* XPM */
static char *c2ce4037adb448ead2cada51480c16afutPz5l9KvT4SLEKN[] = {
/* columns rows colors chars-per-pixel */
"64 64 4 1 ",
"  c #18A068",
". c #70C0A0",
"X c #40B080",
"o c #A0D0C0",
/* pixels */
"    ............................................................",
"    ............................................................",
"    ............................................................",
"    ............................................................",
"........XXXX....................................................",
"........XXXX....................................................",
"........XXXX....................................................",
"........XXXX....................................................",
"........................oooo............................oooo....",
"........................oooo............................oooo....",
"........................oooo............................oooo....",
"........................oooo............................oooo....",
"oooo........    ................oooo............................",
"oooo........    ................oooo............................",
"oooo........    ................oooo............................",
"oooo........    ................oooo............................",
"................................................................",
"................................................................",
"................................................................",
"................................................................",
"................XXXX............................XXXX............",
"................XXXX............................XXXX............",
"................XXXX............................XXXX............",
"................XXXX............................XXXX............",
"................................................................",
"................................................................",
"................................................................",
"................................................................",
"............oooo........XXXX................oooo................",
"............oooo........XXXX................oooo................",
"............oooo........XXXX................oooo................",
"............oooo........XXXX................oooo................",
"................................    ............................",
"................................    ............................",
"................................    ............................",
"................................    ............................",
"........................................XXXX....................",
"........................................XXXX....................",
"........................................XXXX....................",
"........................................XXXX....................",
"........................oooo............................oooo....",
"........................oooo............................oooo....",
"........................oooo............................oooo....",
"........................oooo............................oooo....",
"oooo............................oooo........    ................",
"oooo............................oooo........    ................",
"oooo............................oooo........    ................",
"oooo............................oooo........    ................",
"................................................................",
"................................................................",
"................................................................",
"................................................................",
"................XXXX............................XXXX............",
"................XXXX............................XXXX............",
"................XXXX............................XXXX............",
"................XXXX............................XXXX............",
"................................................................",
"................................................................",
"................................................................",
"................................................................",
"............oooo............................oooo........XXXX....",
"............oooo............................oooo........XXXX....",
"............oooo............................oooo........XXXX....",
"............oooo............................oooo........XXXX...."
};
