/* XPM */
static char *result[] = {
/* columns rows colors chars-per-pixel */
"64 64 228 2 ",
"   c #70C8A0",
".  c #74CFA6",
"X  c #79D8AD",
"o  c #74CEA6",
"O  c #7CDFB3",
"+  c #74CBA4",
"@  c #72CCA3",
"#  c #7CD4AE",
"$  c #76CFA7",
"%  c #77D7AC",
"&  c #7FD9B2",
"*  c #80E3B7",
"=  c #79D3AB",
"-  c #76CCA6",
";  c #7BDAB0",
":  c #80DDB4",
">  c #5DB58F",
",  c #64C29A",
"<  c #6CC69E",
"1  c #74CDA5",
"2  c #79D0AA",
"3  c #72C9A2",
"4  c #49AC86",
"5  c #6AC59D",
"6  c #5FBF97",
"7  c #56A986",
"8  c #4E9F7D",
"9  c #62BB94",
"0  c #56B28C",
"q  c #69BC96",
"w  c #68C49C",
"e  c #51A784",
"r  c #61C098",
"t  c #53B18B",
"y  c #5FB791",
"u  c #53A784",
"i  c #4FA582",
"p  c #6EC79F",
"a  c #6CC19B",
"s  c #49A27F",
"d  c #66C39B",
"f  c #499E7C",
"g  c #6BBF99",
"h  c #55A885",
"j  c #52B58E",
"k  c #6DC39C",
"l  c #52B38D",
"z  c #559F7F",
"x  c #489978",
"c  c #76CBA4",
"v  c #72C9A1",
"b  c #74CAA3",
"n  c #8AE0B8",
"m  c #7ACDA6",
"M  c #78CCA5",
"N  c #7AD3AA",
"B  c #83D2AD",
"V  c #83D6B0",
"C  c #71CBA2",
"Z  c #87E2B9",
"A  c #7FDCB2",
"S  c #81D4AE",
"D  c #7BD9AE",
"F  c #80D9B0",
"G  c #87D9B2",
"H  c #89DEB7",
"J  c #81DBB1",
"K  c #80DFB3",
"L  c #80DEB3",
"P  c #7FDBB1",
"I  c #8ADAB5",
"U  c #71C9A1",
"Y  c #7EDEB2",
"T  c #7DD0AA",
"R  c #81DCB2",
"E  c #7FD0AA",
"W  c #7DD3AB",
"Q  c #73CDA4",
"!  c #6FC69E",
"~  c #69BF99",
"^  c #58A986",
"/  c #4D9B7B",
"(  c #539E7D",
")  c #50A583",
"_  c #5AAA87",
"`  c #429F7C",
"'  c #529D7D",
"]  c #7FDBB3",
"[  c #4B9677",
"{  c #50A683",
"}  c #64B994",
"|  c #4DA582",
" . c #5BBD95",
".. c #67BB95",
"X. c #4C9E7D",
"o. c #72CAA2",
"O. c #80DCB4",
"+. c #75CBA5",
"@. c #81DEB6",
"#. c #69BB96",
"$. c #56B18C",
"%. c #64BB95",
"&. c #6BBF98",
"*. c #4EAA86",
"=. c #65B591",
"-. c #7CD8B0",
";. c #7EDDB3",
":. c #84E3B9",
">. c #5CAC89",
",. c #56A07F",
"<. c #51A180",
"1. c #4F9C7B",
"2. c #7DDAAF",
"3. c #7DD1AA",
"4. c #7AD8AE",
"5. c #80D3AC",
"6. c #84DDB4",
"7. c #80D6AE",
"8. c #88E0B7",
"9. c #89DFB7",
"0. c #7CCEA8",
"q. c #7FD2AB",
"w. c #77D1A8",
"e. c #59BC94",
"r. c #5BAB88",
"t. c #47896C",
"y. c #61AE8B",
"u. c #5EAC89",
"i. c #76D1A8",
"p. c #5AA281",
"a. c #62B38F",
"s. c #7BD6AE",
"d. c #75D0A7",
"f. c #81E5B9",
"g. c #7FDDB3",
"h. c #7EDCB2",
"j. c #559F7E",
"k. c #55A17F",
"l. c #82E4B9",
"z. c #79DCB0",
"x. c #78D3AB",
"c. c #73CAA3",
"v. c #80DFB5",
"b. c #7CD7AF",
"n. c #80E2B7",
"m. c #7ACEAA",
"M. c #82E6BA",
"N. c #79D6AD",
"B. c #7DD9B0",
"V. c #7ED6B0",
"C. c #53A280",
"Z. c #78CDA8",
"A. c #5DBE96",
"S. c #7AD3AC",
"D. c #7CDBB1",
"F. c #77D2A9",
"G. c #5EA987",
"H. c #78D2AA",
"J. c #7FD8B1",
"K. c #84DFB8",
"L. c #4EA07E",
"P. c #519576",
"I. c #4CA07E",
"U. c #7FDCB3",
"Y. c #7EDCB3",
"T. c #4B8C6F",
"R. c #6FC79F",
"E. c #75CDA6",
"W. c #7EDEB3",
"Q. c #7FDFB5",
"!. c #7FDEB4",
"~. c #75CCA5",
"^. c #7EDFB5",
"/. c #7CD1AC",
"(. c #74CEA5",
"). c #6CC29B",
"_. c #4AB089",
"`. c #65BE97",
"'. c #51B38C",
"]. c #4FAF8A",
"[. c #60B38F",
"{. c #5FB38F",
"}. c #4CA380",
"|. c #6AC09A",
" X c #4DA07E",
".X c #54A784",
"XX c #4C9B7A",
"oX c #6CC39B",
"OX c #5CB58F",
"+X c #5BA987",
"@X c #4B9676",
"#X c #79D0A9",
"$X c #79CFA8",
"%X c #78D4AA",
"&X c #76D2A8",
"*X c #8BDEB7",
"=X c #7CD4AB",
"-X c #73CFA5",
";X c #84E1B7",
":X c #83DAB3",
">X c #76D4A9",
",X c #81DFB4",
"<X c #86E1B7",
"1X c #82DFB5",
"2X c #7DD2AB",
"3X c #86DFB5",
"4X c #85DAB2",
"5X c #87DDB4",
"6X c #78CDA6",
"7X c #82DAB2",
"8X c #85DFB5",
"9X c #52A280",
"0X c #5FBA93",
"qX c #80DAB3",
"wX c #519D7C",
"eX c #7FD7B1",
"rX c #77D3AA",
"tX c #80E0B6",
"yX c #76CFA8",
"uX c #82DFB7",
"iX c #54AD89",
"pX c #4DA481",
"aX c #79D5AC",
"sX c #76D2A9",
"dX c #81DFB6",
"fX c #51A07E",
"gX c #67BF98",
"hX c #58A583",
/* pixels */
"  .     X o                                                                                                                     ",
". O + @ # #   $ %                                                                                                               ",
"    & * = - ; :             >                                           , <                                                     ",
"    1 2     - 3       , ,   4   5 6                               5 7   8 9   0 q                                               ",
"                      w e 5 r 5 t y                       u       < u , y < i r                       u                         ",
"                        5 p   p w                   u w a s   r     < <     d                   > >   f   w u                   ",
"                                                    a s g a h j                                 k l z   z x                     ",
"                                      c v                                         b b                                           ",
"                                v c @ n m   M                                 N   B V   N C                                     ",
"                                c Z A S D F G                                 H J K L P I U                                     ",
"                                  Y T     R                                   b E     W b                                       ",
"                                          Q                                                                                     ",
"                                                                                                                                ",
"                                                                                                                                ",
"                                                                                                                            5 < ",
"  h                                                     a !                                                           ~ ^   / h ",
"^ /                                                     h a                                         ( <               5 ) , 7 _ ",
"^                                                 7 _ a `   , 6                               , '   x d 5 u             < _     ",
"            ] +               [                   5 { w d w t }           |                   <  .^ w ..X.w                     ",
"      + ] o.O.+.. @.  #.$.%.  4   ^ 0 q             5 p   p 5       ^ r &.f   w *.=.            < <     w                       ",
"        -.;.    :.C       | >.  ,.<.                                  1.^     |                                                 ",
"                                                                                                              b b               ",
"                                                            2.3.                                        4.5.  6.6.  7.          ",
"                                                            3.8.                                        c 9.0.P 3.q.H           ",
"                                                              M                                           b P     q.w.          ",
"            1.w                                                                                                                 ",
"      w e.  i r.  |                                                                                                             ",
"        r (   g t.q                                                                               y.                            ",
"                                    3 3       y.    u.p   a y.                  U i.  % @ y.p.  a.a.  p.                        ",
"                              3 s.d.f.g.@ h.  < j.  i d #.k.a               * Q +.l.z.x.c.  ^ q h h g ^                         ",
"                              3 v.b.+ + n.:   < 1., _ < i r                 m.M.X N.B.V.3    .C.w w 1. .                        ",
"                                3 -     Z.3     w w     A.                    S.    D.F.    < ,     ( <                     g   ",
"  s     y.                                                                                                      V.+         G.  ",
"  |   d i g                                                   m.                                          H.J.  J.+.  K.    L.h ",
"w   P.I.                                                                                                    Z.U.    Y.Q       T.",
"                                                                                                                                ",
"                                                                                                                                ",
"                                                                                                                                ",
"                                                                                                                                ",
"                                                                                                                e.w             ",
"                                        R.                    A.                    R.                    d i   / d   x         ",
"                                                                                                            r u g   |           ",
"        F.E.                                                                                                                    ",
"    W.Q Q.!.. h.                                                                                                                ",
"    v.U.$ ~.^./.            u                                           7 5                                                     ",
"    (.+     c.U       ^ r )._.y.`.0                               w u   '.d   ].q                                               ",
"                      < { `.[.{.}.}                       |       p  .^ 5 |.s w                       |                         ",
"                                                    0 >    X< .X                                r .Xp XXoXOX1.                  ",
"                                                      |     > 0                                   e.>.  +X@X                    ",
"                                      P b                                         #X$X                                          ",
"                                %XK &X*X=X  7.                                F -X;X:X>X,X                                      ",
"                                b <X1X2X%X3X7.                                4X5X6XM 7X8X                                      ",
"                                  b c     M                                   v N C   c v                                       ",
"                                                                                                                                ",
"                                                                                                                                ",
"                                                                                                                                ",
"                                                                                                                            _ w ",
"  i                                                                                                                   5 u &.i A.",
"u A.                                                    /                                           u 5               < 9X7 , w ",
"w                                                 u 0X  `   r e.                              r 1.  s d w XX            p 5     ",
"            qX+.              f                   a / d   d /             s                     A.wXa   s                       ",
"      + eXrXtXF.yXuXQ   e.^ p | p .XiXq                             ^ .X~ pX  ( XX                                              ",
"        D.aX  sXdX@       fX}   gX7                                   7 hXa y.u                                                 ",
"                                                                                                              M M               "
};
