/* XPM */
static char *f4530cfbf70643eab3480eff80c73e5bXtDLK1w9MMFIqP2S[] = {
/* columns rows colors chars-per-pixel */
"64 64 228 2 ",
"   c #70C8A0",
".  c #74CFA6",
"X  c #79D8AD",
"o  c #74CEA6",
"O  c #7CDFB3",
"+  c #74CBA4",
"@  c #72CCA3",
"#  c #7CD4AE",
"$  c #76CFA7",
"%  c #77D7AC",
"&  c #64C29A",
"*  c #6CC69E",
"=  c #7FD9B2",
"-  c #80E3B7",
";  c #79D3AB",
":  c #76CCA6",
">  c #7BDAB0",
",  c #80DDB4",
"<  c #5DB58F",
"1  c #6AC59D",
"2  c #56A986",
"3  c #4E9F7D",
"4  c #62BB94",
"5  c #56B28C",
"6  c #69BC96",
"7  c #74CDA5",
"8  c #79D0AA",
"9  c #72C9A2",
"0  c #49AC86",
"q  c #5FBF97",
"w  c #53A784",
"e  c #5FB791",
"r  c #4FA582",
"t  c #61C098",
"y  c #68C49C",
"u  c #51A784",
"i  c #53B18B",
"p  c #66C39B",
"a  c #499E7C",
"s  c #6EC79F",
"d  c #6CC19B",
"f  c #49A27F",
"g  c #6DC39C",
"h  c #52B38D",
"j  c #559F7F",
"k  c #489978",
"l  c #6BBF99",
"z  c #55A885",
"x  c #52B58E",
"c  c #74CAA3",
"v  c #76CBA4",
"b  c #72C9A1",
"n  c #7AD3AA",
"m  c #83D2AD",
"M  c #83D6B0",
"N  c #71CBA2",
"B  c #8AE0B8",
"V  c #7ACDA6",
"C  c #78CCA5",
"Z  c #89DEB7",
"A  c #81DBB1",
"S  c #80DFB3",
"D  c #80DEB3",
"F  c #7FDBB1",
"G  c #8ADAB5",
"H  c #71C9A1",
"J  c #87E2B9",
"K  c #7FDCB2",
"L  c #81D4AE",
"P  c #7BD9AE",
"I  c #80D9B0",
"U  c #87D9B2",
"Y  c #7FD0AA",
"T  c #7DD3AB",
"R  c #7EDEB2",
"E  c #7DD0AA",
"W  c #81DCB2",
"Q  c #73CDA4",
"!  c #69BF99",
"~  c #58A986",
"^  c #4D9B7B",
"/  c #6FC69E",
"(  c #539E7D",
")  c #50A583",
"_  c #5AAA87",
"`  c #529D7D",
"'  c #429F7C",
"]  c #4DA582",
"[  c #5BBD95",
"{  c #67BB95",
"}  c #4C9E7D",
"|  c #7FDBB3",
" . c #4B9677",
".. c #50A683",
"X. c #64B994",
"o. c #6BBF98",
"O. c #4EAA86",
"+. c #65B591",
"@. c #72CAA2",
"#. c #80DCB4",
"$. c #75CBA5",
"%. c #81DEB6",
"&. c #69BB96",
"*. c #56B18C",
"=. c #64BB95",
"-. c #4F9C7B",
";. c #7CD8B0",
":. c #7EDDB3",
">. c #84E3B9",
",. c #5CAC89",
"<. c #56A07F",
"1. c #51A180",
"2. c #7AD8AE",
"3. c #80D3AC",
"4. c #84DDB4",
"5. c #80D6AE",
"6. c #7DDAAF",
"7. c #7DD1AA",
"8. c #89DFB7",
"9. c #7CCEA8",
"0. c #7FD2AB",
"q. c #88E0B7",
"w. c #77D1A8",
"e. c #59BC94",
"r. c #5BAB88",
"t. c #61AE8B",
"y. c #47896C",
"u. c #76D1A8",
"i. c #5AA281",
"p. c #62B38F",
"a. c #5EAC89",
"s. c #82E4B9",
"d. c #79DCB0",
"f. c #78D3AB",
"g. c #73CAA3",
"h. c #7BD6AE",
"j. c #75D0A7",
"k. c #81E5B9",
"l. c #7FDDB3",
"z. c #7EDCB2",
"x. c #559F7E",
"c. c #55A17F",
"v. c #7ACEAA",
"b. c #82E6BA",
"n. c #79D6AD",
"m. c #7DD9B0",
"M. c #7ED6B0",
"N. c #53A280",
"B. c #80DFB5",
"V. c #7CD7AF",
"C. c #80E2B7",
"Z. c #7AD3AC",
"A. c #7CDBB1",
"S. c #77D2A9",
"D. c #78CDA8",
"F. c #5DBE96",
"G. c #5EA987",
"H. c #78D2AA",
"J. c #7FD8B1",
"K. c #84DFB8",
"L. c #4EA07E",
"P. c #7FDCB3",
"I. c #7EDCB3",
"U. c #4B8C6F",
"Y. c #519576",
"T. c #4CA07E",
"R. c #6FC79F",
"E. c #75CDA6",
"W. c #7EDEB3",
"Q. c #7FDFB5",
"!. c #7FDEB4",
"~. c #75CCA5",
"^. c #7EDFB5",
"/. c #7CD1AC",
"(. c #51B38C",
"). c #4FAF8A",
"_. c #74CEA5",
"`. c #6CC29B",
"'. c #4AB089",
"]. c #65BE97",
"[. c #6AC09A",
"{. c #60B38F",
"}. c #5FB38F",
"|. c #4CA380",
" X c #54A784",
".X c #4C9B7A",
"XX c #6CC39B",
"oX c #5CB58F",
"OX c #4DA07E",
"+X c #5BA987",
"@X c #4B9676",
"#X c #79D0A9",
"$X c #79CFA8",
"%X c #73CFA5",
"&X c #84E1B7",
"*X c #83DAB3",
"=X c #76D4A9",
"-X c #81DFB4",
";X c #78D4AA",
":X c #76D2A8",
">X c #8BDEB7",
",X c #7CD4AB",
"<X c #85DAB2",
"1X c #87DDB4",
"2X c #78CDA6",
"3X c #82DAB2",
"4X c #85DFB5",
"5X c #86E1B7",
"6X c #82DFB5",
"7X c #7DD2AB",
"8X c #86DFB5",
"9X c #52A280",
"0X c #5FBA93",
"qX c #519D7C",
"wX c #80DAB3",
"eX c #4DA481",
"rX c #7FD7B1",
"tX c #77D3AA",
"yX c #80E0B6",
"uX c #76CFA8",
"iX c #82DFB7",
"pX c #54AD89",
"aX c #58A583",
"sX c #79D5AC",
"dX c #76D2A9",
"fX c #81DFB6",
"gX c #51A07E",
"hX c #67BF98",
/* pixels */
"                                                                  .     X o                                                     ",
"                                                                . O + @ # #   $ %                                               ",
"        & *                                                         = - ; : > ,             <                                   ",
"  1 2   3 4   5 6                                                   7 8     : 9       & &   0   1 q                             ",
"  * w & e * r t                       w                                               y u 1 t 1 i e                       w     ",
"    * *     p                   < <   a   y w                                           1 s   s y                   w y d f   t ",
"                                g h j   j k                                                                         d f l d z x ",
"                  c c                                                                                 v b                       ",
"              n   m M   n N                                                                     b v @ B V   C                   ",
"              Z A S D F G H                                                                     v J K L P I U                   ",
"              c Y     T c                                                                         R E     W                     ",
"                                                                                                          Q                     ",
"                                                                                                                                ",
"                                                                                                                                ",
"                                                            1 *                                                                 ",
"                                                      ! ~   ^ z   z                                                     d /     ",
"                                    ( *               1 ) & 2 _ ~ ^                                                     z d     ",
"                              & `   k p 1 w             * _     ~                                                 2 _ d '   & q ",
"          ]                   * [ ~ y { } y                                 | +                .                  1 ..y p y i X.",
"    ~ t o.a   y O.+.            * *     y                             + | @.#.$.. %.  &.*.=.  0   ~ 5 6             1 s   s 1   ",
"      -.~     ]                                                         ;.:.    >.N       ] ,.  <.1.                            ",
"                                              c c                                                                               ",
"                                        2.3.  4.4.  5.                                                                      6.7.",
"                                        v 8.9.F 7.0.Z                                                                       7.q.",
"                                          c F     0.w.                                                                        C ",
"                                                                            -.y                                                 ",
"                                                                      y e.  r r.  ]                                             ",
"                                  t.                                    t (   l y.6                                             ",
"                H u.  % @ t.i.  p.p.  i.                                                            9 9       t.    a.s   d t.  ",
"            - Q $.s.d.f.g.  ~ 6 z z l ~                                                       9 h.j.k.l.@ z.  * x.  r p &.c.d   ",
"            v.b.X n.m.M.9   [ N.y y -.[                                                       9 B.V.+ + C.,   * -.& _ * r t     ",
"              Z.    A.S.    * &     ( *                     l                                   9 :     D.9     y y     F.      ",
"                                                M.+         G.    f     t.                                                      ",
"                                          H.J.  J.$.  K.    L.z   ]   p r l                                                   v.",
"                                            D.P.    I.Q       U.y   Y.T.                                                        ",
"                                                                                                                                ",
"                                                                                                                                ",
"                                                                                                                                ",
"                                                                                                                                ",
"                                                e.y                                                                             ",
"                    R.                    p r   ^ p   k                                                 R.                    F.",
"                                            t w l   ]                                                                           ",
"                                                                        S.E.                                                    ",
"                                                                    W.Q Q.!.. z.                                                ",
"        2 1                                                         B.P.$ ~.^./.            w                                   ",
"  y w   (.p   ).6                                                   _.+     g.H       ~ t `.'.t.].5                             ",
"  s [ ~ 1 [.f y                       ]                                               * ..].{.}.|.X.                      ]     ",
"                                t  Xs .XXXoX-.                                                                      5 <   OX*  X",
"                                  e.,.  +X@X                                                                          ]     < 5 ",
"                  #X$X                                                                                F c                       ",
"              I %X&X*X=X-X                                                                      ;XS :X>X,X  5.                  ",
"              <X1X2XC 3X4X                                                                      c 5X6X7X;X8X5.                  ",
"              b n N   v b                                                                         c v     C                     ",
"                                                                                                                                ",
"                                                                                                                                ",
"                                                                                                                                ",
"                                                            _ y                                                                 ",
"                                                      1 w o.r F.  r                                                             ",
"                                    w 1               * 9X2 & y w F.                                                    ^       ",
"                              t -.  f p y .X            s 1     y                                                 w 0X  '   t e.",
"          f                     F.qXd   f                                   wX$.              a                   d ^ p   p ^   ",
"    ~  X! eX  ( .X                                                    + rXtXyXS.uXiXQ   e.~ s ] s  XpX6                         ",
"      2 aXd t.w                                                         A.sX  dXfX@       gXX.  hX2                             ",
"                                              C C                                                                               "
};
