/* XPM */
static char *result[] = {
/* columns rows colors chars-per-pixel */
"64 64 228 2 ",
"   c #70C8A0",
".  c #7ED6B0",
"X  c #74CBA4",
"o  c #5EA987",
"O  c #49A27F",
"+  c #61AE8B",
"@  c #78D2AA",
"#  c #7FD8B1",
"$  c #75CBA5",
"%  c #84DFB8",
"&  c #4EA07E",
"*  c #55A885",
"=  c #4DA582",
"-  c #66C39B",
";  c #4FA582",
":  c #6BBF99",
">  c #7ACEAA",
",  c #78CDA8",
"<  c #7FDCB3",
"1  c #7EDCB3",
"2  c #73CDA4",
"3  c #4B8C6F",
"4  c #68C49C",
"5  c #519576",
"6  c #4CA07E",
"7  c #59BC94",
"8  c #6FC79F",
"9  c #4D9B7B",
"0  c #489978",
"q  c #5DBE96",
"w  c #61C098",
"e  c #53A784",
"r  c #77D2A9",
"t  c #75CDA6",
"y  c #7EDEB3",
"u  c #7FDFB5",
"i  c #7FDEB4",
"p  c #74CFA6",
"a  c #7EDCB2",
"s  c #56A986",
"d  c #6AC59D",
"f  c #80DFB5",
"g  c #76CFA7",
"h  c #75CCA5",
"j  c #7EDFB5",
"k  c #7CD1AC",
"l  c #51B38C",
"z  c #4FAF8A",
"x  c #69BC96",
"c  c #74CEA5",
"v  c #73CAA3",
"b  c #71C9A1",
"n  c #58A986",
"m  c #6CC29B",
"M  c #4AB089",
"N  c #65BE97",
"B  c #56B28C",
"V  c #6EC79F",
"C  c #5BBD95",
"Z  c #6AC09A",
"A  c #6CC69E",
"S  c #50A683",
"D  c #60B38F",
"F  c #5FB38F",
"G  c #4CA380",
"H  c #64B994",
"J  c #54A784",
"K  c #4C9B7A",
"L  c #6CC39B",
"P  c #5CB58F",
"I  c #4F9C7B",
"U  c #5DB58F",
"Y  c #4DA07E",
"T  c #5CAC89",
"R  c #5BA987",
"E  c #4B9676",
"W  c #79D0A9",
"Q  c #79CFA8",
"!  c #7FDBB1",
"~  c #74CAA3",
"^  c #80D9B0",
"/  c #73CFA5",
"(  c #84E1B7",
")  c #83DAB3",
"_  c #76D4A9",
"`  c #81DFB4",
"'  c #78D4AA",
"]  c #80DFB3",
"[  c #76D2A8",
"{  c #8BDEB7",
"}  c #7CD4AB",
"|  c #80D6AE",
" . c #85DAB2",
".. c #87DDB4",
"X. c #78CDA6",
"o. c #78CCA5",
"O. c #82DAB2",
"+. c #85DFB5",
"@. c #86E1B7",
"#. c #82DFB5",
"$. c #7DD2AB",
"%. c #86DFB5",
"&. c #72C9A1",
"*. c #7AD3AA",
"=. c #71CBA2",
"-. c #76CBA4",
";. c #5AAA87",
":. c #6BBF98",
">. c #52A280",
",. c #64C29A",
"<. c #5FBA93",
"1. c #429F7C",
"2. c #519D7C",
"3. c #6CC19B",
"4. c #80DAB3",
"5. c #499E7C",
"6. c #69BF99",
"7. c #4DA481",
"8. c #539E7D",
"9. c #7FD7B1",
"0. c #77D3AA",
"q. c #80E0B6",
"w. c #76CFA8",
"e. c #82DFB7",
"r. c #54AD89",
"t. c #58A583",
"y. c #7CDBB1",
"u. c #79D5AC",
"i. c #76D2A9",
"p. c #81DFB6",
"a. c #72CCA3",
"s. c #51A07E",
"d. c #67BF98",
"f. c #79D8AD",
"g. c #74CEA6",
"h. c #7CDFB3",
"j. c #7CD4AE",
"k. c #77D7AC",
"l. c #7FD9B2",
"z. c #80E3B7",
"x. c #79D3AB",
"c. c #76CCA6",
"v. c #7BDAB0",
"b. c #80DDB4",
"n. c #4E9F7D",
"m. c #62BB94",
"M. c #74CDA5",
"N. c #79D0AA",
"B. c #72C9A2",
"V. c #49AC86",
"C. c #5FBF97",
"Z. c #5FB791",
"A. c #51A784",
"S. c #53B18B",
"D. c #6DC39C",
"F. c #52B38D",
"G. c #559F7F",
"H. c #52B58E",
"J. c #83D2AD",
"K. c #83D6B0",
"L. c #8AE0B8",
"P. c #7ACDA6",
"I. c #89DEB7",
"U. c #81DBB1",
"Y. c #80DEB3",
"T. c #8ADAB5",
"R. c #87E2B9",
"E. c #7FDCB2",
"W. c #81D4AE",
"Q. c #7BD9AE",
"!. c #87D9B2",
"~. c #7FD0AA",
"^. c #7DD3AB",
"/. c #7EDEB2",
"(. c #7DD0AA",
"). c #81DCB2",
"_. c #6FC69E",
"`. c #50A583",
"'. c #529D7D",
"]. c #67BB95",
"[. c #4C9E7D",
"{. c #7FDBB3",
"}. c #4B9677",
"|. c #4EAA86",
" X c #65B591",
".X c #72CAA2",
"XX c #80DCB4",
"oX c #81DEB6",
"OX c #69BB96",
"+X c #56B18C",
"@X c #64BB95",
"#X c #7CD8B0",
"$X c #7EDDB3",
"%X c #84E3B9",
"&X c #56A07F",
"*X c #51A180",
"=X c #7AD8AE",
"-X c #80D3AC",
";X c #84DDB4",
":X c #7DDAAF",
">X c #7DD1AA",
",X c #89DFB7",
"<X c #7CCEA8",
"1X c #7FD2AB",
"2X c #88E0B7",
"3X c #77D1A8",
"4X c #5BAB88",
"5X c #47896C",
"6X c #76D1A8",
"7X c #5AA281",
"8X c #62B38F",
"9X c #5EAC89",
"0X c #82E4B9",
"qX c #79DCB0",
"wX c #78D3AB",
"eX c #7BD6AE",
"rX c #75D0A7",
"tX c #81E5B9",
"yX c #7FDDB3",
"uX c #559F7E",
"iX c #55A17F",
"pX c #82E6BA",
"aX c #79D6AD",
"sX c #7DD9B0",
"dX c #53A280",
"fX c #7CD7AF",
"gX c #80E2B7",
"hX c #7AD3AC",
/* pixels */
"                                                . X         o     O     +                                                       ",
"                                          @ #   # $   %     & *   =   - ; :                                                   > ",
"                                            , <     1 2       3 4   5 6                                                         ",
"                                                                                                                                ",
"                                                                                                                                ",
"                                                                                                                                ",
"                                                                                                                                ",
"                                                7 4                                                                             ",
"                    8                     - ;   9 -   0                                                 8                     q ",
"                                            w e :   =                                                                           ",
"                                                                        r t                                                     ",
"                                                                    y 2 u i p a                                                 ",
"        s d                                                         f < g h j k             e                                   ",
"  4 e   l -   z x                                                   c X     v b       n w m M + N B                             ",
"  V C n d Z O 4                       =                                               A S N D F G H                       =     ",
"                                w J V K L P I                                                                       B U   Y A J ",
"                                  7 T   R E                                                                           =     U B ",
"                  W Q                                                                                 ! ~                       ",
"              ^ / ( ) _ `                                                                       ' ] [ { }   |                   ",
"               ...X.o.O.+.                                                                      ~ @.#.$.' %.|                   ",
"              &.*.=.  -.&.                                                                        ~ -.    o.                    ",
"                                                                                                                                ",
"                                                                                                                                ",
"                                                                                                                                ",
"                                                            ;.4                                                                 ",
"                                                      d e :.; q   ;                                                             ",
"                                    e d               A >.s ,.4 e q                                                     9       ",
"                              w I   O - 4 K             V d     4                                                 e <.  1.  w 7 ",
"          O                     q 2.3.  O                                   4.$               5.                  3.9 -   - 9   ",
"    n J 6.7.  8.K                                                     X 9.0.q.r w.e.2   7 n V = V J r.x                         ",
"      s t.3.+ e                                                         y.u.  i.p.a.      s.H   d.s                             ",
"                                              o.o.                                                                              ",
"                                                                  p     f.g.                                                    ",
"                                                                p h.X a.j.j.  g k.                                              ",
"        ,.A                                                         l.z.x.c.v.b.            U                                   ",
"  d s   n.m.  B x                                                   M.N.    c.B.      ,.,.  V.  d C.                            ",
"  A e ,.Z.A ; w                       e                                               4 A.d w d S.Z.                      e     ",
"    A A     -                   U U   5.  4 e                                           d V   V 4                   e 4 3.O   w ",
"                                D.F.G.  G.0                                                                         3.O : 3.* H.",
"                  ~ ~                                                                                 -.&.                      ",
"              *.  J.K.  *.=.                                                                    &.-.a.L.P.  o.                  ",
"              I.U.] Y.! T.b                                                                     -.R.E.W.Q.^ !.                  ",
"              ~ ~.    ^.~                                                                         /.(.    ).                    ",
"                                                                                                          2                     ",
"                                                                                                                                ",
"                                                                                                                                ",
"                                                            d A                                                                 ",
"                                                      6.n   9 *   *                                                     3._.    ",
"                                    8.A               d `.,.s ;.n 9                                                     * 3.    ",
"                              ,.'.  0 - d e             A ;.    n                                                 s ;.3.1.  ,.C.",
"          =                   A C n 4 ].[.4                                 {.X               }.                  d S 4 - 4 S.H ",
"    n w :.5.  4 |. X            A A     4                             X {..XXX$ p oX  OX+X@X  V.  n B x             d V   V d   ",
"      I n     =                                                         #X$X    %X=.      = T   &X*X                            ",
"                                              ~ ~                                                                               ",
"                                        =X-X  ;X;X  |                                                                       :X>X",
"                                        -.,X<X! >X1XI.                                                                      >X2X",
"                                          ~ !     1X3X                                                                        o.",
"                                                                            I 4                                                 ",
"                                                                      4 7   ; 4X  =                                             ",
"                                  +                                     w 8.  : 5Xx                                             ",
"                b 6X  k.a.+ 7X  8X8X  7X                                                            B.B.      +     9XV   3.+   ",
"            z.2 $ 0XqXwXv   n x * * : n                                                       B.eXrXtXyXa.a   A uX  ; - OXiX3.  ",
"            > pXf.aXsX. B.  C dX4 4 I C                                                       B.f fXX X gXb.  A I ,.;.A ; w     ",
"              hX    y.r     A ,.    8.A                     :                                   B.c.    , B.    4 4     q       "
};
