/* XPM */
static char *_a8f72219f0947debe8876072bd7d8c0tjhWZZaA5IHB482Q[] = {
/* columns rows colors chars-per-pixel */
"64 64 133 2 ",
"   c #47896C",
".  c #4B8C6F",
"X  c #4E9676",
"o  c #4F9778",
"O  c #4D9C7B",
"+  c #519677",
"@  c #529778",
"#  c #539B7B",
"$  c #4EA17E",
"%  c #54A07F",
"&  c #58A07F",
"*  c #4EA582",
"=  c #55A482",
"-  c #5AA483",
";  c #56A986",
":  c #5AA986",
">  c #54AF8A",
",  c #5EAC89",
"<  c #55B18C",
"1  c #5DB28E",
"2  c #5FB690",
"3  c #5BBC94",
"4  c #61AE8B",
"5  c #62B28E",
"6  c #64B591",
"7  c #6AB392",
"8  c #66BA94",
"9  c #69BC96",
"0  c #6BBF99",
"q  c #73BE9D",
"w  c #64C29A",
"e  c #6CC49D",
"r  c #73C39F",
"t  c #70C8A0",
"y  c #79CCA6",
"u  c #79CFA8",
"i  c #77D2A9",
"p  c #7CD1AB",
"a  c #7BD9AE",
"s  c #7ED6B0",
"d  c #7FDBB2",
"f  c #81D4AE",
"g  c #84D6B1",
"h  c #84DDB4",
"j  c #85DAB4",
"k  c #88DAB5",
"l  c #89DAB6",
"z  c #8BDBB6",
"x  c #8ADBB7",
"c  c #89DBB6",
"v  c #8BDCB8",
"b  c #8CDDB9",
"n  c #8EDEBA",
"m  c #8EDFBB",
"M  c #8FDFBB",
"N  c #8DDEBA",
"B  c #90DFBC",
"V  c #80E3B7",
"C  c #83E2B8",
"Z  c #85E4BA",
"A  c #8AE0B8",
"S  c #8AE1BA",
"D  c #8BE1BA",
"F  c #8BE1BB",
"G  c #8DE2BB",
"H  c #8BE4BB",
"J  c #8FE3BD",
"K  c #8DE2BC",
"L  c #90E0BC",
"P  c #91E0BD",
"I  c #91E1BD",
"U  c #92E2BD",
"Y  c #91E2BE",
"T  c #93E3BF",
"R  c #94E1BE",
"E  c #94E3BF",
"W  c #92E2BE",
"Q  c #8CE8C0",
"!  c #94E3C0",
"~  c #96E3C0",
"^  c #93E5C0",
"/  c #93E6C2",
"(  c #95E4C0",
")  c #95E4C1",
"_  c #94E7C1",
"`  c #96E4C2",
"'  c #97E5C2",
"]  c #94E7C2",
"[  c #97E7C4",
"{  c #96E4C1",
"}  c #98E6C3",
"|  c #99E7C4",
" . c #99E6C4",
".. c #95E9C5",
"X. c #96E9C4",
"o. c #97E9C5",
"O. c #94E8C3",
"+. c #9AE9C7",
"@. c #99EAC6",
"#. c #9AEAC7",
"$. c #9CE9C7",
"%. c #9AE9C6",
"&. c #9CEBC9",
"*. c #9FEBCA",
"=. c #9DECC9",
"-. c #9DECCA",
";. c #9DECC9",
":. c #A0ECCB",
">. c #A1ECCB",
",. c #A1EDCC",
"<. c #A1EFCD",
"1. c #A3EECD",
"2. c #A2EFCD",
"3. c #A4EECD",
"4. c #A4EFCE",
"5. c #A5EFCE",
"6. c #A5EFCF",
"7. c #A2EECC",
"8. c #A3F0CE",
"9. c #A4F0CE",
"0. c #A4F0CF",
"q. c #A5F0CF",
"w. c #A6F0CF",
"e. c #A4F0CE",
"r. c #A7F1D0",
"t. c #A6F2D1",
"y. c #A7F2D1",
"u. c #A7F1D1",
"i. c #A8F1D1",
"p. c #A9F2D2",
"a. c #A9F3D2",
"s. c #AAF3D3",
"d. c #A8F2D2",
/* pixels */
"t r t e r e r t t t t t t t t t t t t t t t t t t t t t t t t t H i t t a i t t t t t t t t r r t t t t t t t t t t t t t t t t ",
"t e e t e w t t e t t t t t t t t t t t t t t t r t t t t t t t 3.V y t E =.t H 9.i 6 & r e w y t t t t t t t t t t t t t t t t ",
"e 9 # e 8 # e 9 # & 4 r t t t t t t t t t e t t t t t t t t t t h 9.E V 3.f r.9.y t 8 % w e + 5 r w t t t t t t t t t t t t t t ",
"t e # 4 O # e % % e e r t r e 1 % & 6 t w & w r t t t t t t t t r t E f f e a t t e r $ + 6 $ & e # & t t t t t w e t t t 6 t t ",
"t e % 2 2 e # = t t t t t t t t e & & % % % e t t t t t t t t t t t t t e t t t t t t e $ 5 w e % % w r t t t t & & t e t + t t ",
"t t e e t t w t t t t t t t t t 3 & & $ e % % t t t t t t t t t t t t t r t t t t t t t e e t t w t t t t t t t e & + w e + & & ",
"t t t t t t t t t t r t t t t t e < % t + + t t t t t t t t t t t t t t t t t e t t t t e t t t t t t r t t t t t t 5 $ e & & % ",
"t t t t t t t t t t i t t t t t t t t t r e t t t t t t t t t t t t t t t t t t t t t t t t t t a t t i t t t t t t t t t t t t ",
"t t t t t t E f t g 9.e a h E r t t t t t t t t t t t t t t t t t t t t t t t t t t t t t t t t G >.y A y t y t t t t t t t t t ",
"t t t t t r J 9.H H 9.H r.9.A r t t t t t t t t t t t t t t t t t t t t e t t t t t t t t t t t y 7.=.h E 9.U t A f t t t t t t ",
"t t t t t t t A E a i E h t r t t t t t t t t t t t t t t t t t t t t t t t t t t t t t t t e t r h E h E H t A >.i r t t t t t ",
"t t t t t t t t e r r e e t t t t t t t t t t t t t t t t t t t t t t t t t t t t t t t t t t t t t t t t i t E y t t t t t t t ",
"t t t t t t t t t t t t r t t t t t t t t t t t t t t t t t t r t t r t t t t t t t t t t t t t t t t t t t t t t t t t t t t t ",
"t t t t t t t t t t t t t t t t t t t t t t t t t t t t t t t e 6 t e 8 t t t t t t t t t t t t t t t t t t t t t t t t t t t t ",
"t t t t t t e t t t t t t t t t t t t t t t t t t t t t e t e % 5 e & % t t t t t t t t t t t t t t e t t t t t t t t t t t t t ",
"t t t t t t t t t t t t t t t t t t t t r t t t t t e w ; e X % 6 % & i t t t t t t t t t t t t t t t t t t t i & t r r w e t t ",
"t t r r e r t t r e t t t t t t t t $ e e t t t t t t e $ w ; ; : $ t t t t t r t t e e t r t t t t t t t t t t + & r e + e t t ",
"t t w e r w & e w r t t t t t w % t $ w e $ t t t t t t e 1 t t : t t t t t t e t t & & 4 e t & 6 t t t t t t t w # + e X t w w ",
"t t $ 4 t + 5 e # e t t t t t t 3 & t w $ e t t t t r r t t t t e r r t t t E E t t e e , % e + & t t w 6 t t t t e + e w w % w ",
"t t % % w $ y & # 8 t t r t t t e e t t w t t t t t t e t t t t t t e =.=.h =.a a =.r w 1 + w % w & # + 6 t t t t t w e t t e t ",
"t t t + & t t % w e t t t t t t t t t t t a e r t t t f t t t t t t t t H E t i r.h y e t % $ t & # 6 t t t t t t t e r t t t t ",
"t t t t e t r e t t t t t t t t t t t e t J g i r e a 9.t t t t t t t t t t t t e t t r t t e r t e t t r t t t t t t a t i f h ",
"t t t t t t t t t t t t t t t t t t t E E r.7.h H f E E t t e t t t t t t t t t t t t t t t t t t t t t t t t t t t t U 9.9.r.a.",
"t t t t t t t t t t t t t t t t t t e y i J r.h 3.a.a.A t t t t t t t t t t t t t t t t t t t t t t t t t t t t t t t e y A 9.9.",
"t t t t t t t t t t t t t t t t t t t t t t E t t A i e t t t t t t t t t t t t t t t t t t t t t t t t t t t t t t t t t t 7.y ",
"t t t t t t t t t t t t t t t t t t t t t t i e t t t t t t t t t t t t t t % w t t t t t t t t t t t t t t t t t t t t t t i t ",
"t t t t t t t t t t t t t t e : & e t t t t t t t t t t t t t t t t t w 3 e $ 1 e $ t t t t t t t t t t t t t t t r t t t y e r ",
"t t t t t t t e g e t t t t r e & & e e t t t t t t t t t t t t t t t t w % e e   w t t t t t t t t t r t t e r & e t t 5 & & w ",
"t t t t t t e f 7.i e @.y 4 & t # 6 y @ r r t t t t t t t t t t t t t t e t t t t t t t t t r E H r a y t a k 4 # e & & 7 r 7 r ",
"t t t t e a H a f H @.U y e ; e : 6 4 % t r t t t t t t t t t t t t t t t t t t t t t t t t t @.E a a.E i 9.G e + t & # E r & # ",
"t t t t t h U H =.3.h h r t 3 $ e e # 3 t t t t t e t t t t t t t t t t t t t t t t t t t t t t 7.2.E i E 9.t e # w # w $ # & t ",
"t t t t t t r a A i a i t t e w e e % e t t t t E f t t t t e & t t t e e t t t t t t t t t t t r i t r h y t t w e e e w t t y ",
"t t t t t t t t t t t t t t t t t t t t y e e y r.i t e r e 4 % e 1 i & & e r t t t t t t t t t t t t t t t t t t t t t e t t t ",
"t t t t t t t t t t t t t t t t t t t t E @.h y G t f 9.f e $ % e $ , # $ e t t t t t t t t t t t t t t t t t t t t t t t t e i ",
"t t t t t t e t t t t t t t t t t t t t 7.8.G h e r y.A t t t X e t X $ t t t t t t t t t t t t t t t t t t t t t t t t t t t t ",
"t t t t t t t t t t t t t t t t t t t e r p U t t r t t t t t t e r t t t t t t t t t t t t t t t t t t t t t t t t t t t t t t ",
"t t t t t t t t t t t t t t t t t t t t t t t t t t t t t t t t t t t t t t t t t t t e t t t t t t t t t t t t t t t t t t t t ",
"t t t t t t t t t t i t t t t t t t t t t t t t t t t t t t t t t t t t t t t t t t t t t t t t t t t t t t t t t t t t t t t t ",
"t t t t t t t t t r h i E r g h r p f f r e e e e e 1 & e r t t t t t t t t t t t t t t t t t t t e t t t t t t t t t t t t t t ",
"t t t t t t t t t r i 5.E e U U t i G t e r # e % # 4 h h t t t t t t t t t t t t t t t t t t t t t t t t t t t t t t t t t t t ",
"t t t t t t t t t t e t f E =.f G G t t t w X e + w e % g 4 t t e t t t t t r r t t t t t t t t t t t t t t t t t t t e t t t w ",
"t t t t t t t t t t t t t t t t r e t t t t : % 6 e % & # 4 t t t t t t r e h e t t t t t t t t t t t t t t t t t t t t t t t e ",
"t t t t t r t t t t t t t t t t t t t t t t e r t t t t e t t t t t h e i $.:.y r e t t t t e r t t t t t t t t t t t t e r t t ",
"t t t & & h t e t t t t t t t t t t t t t t t t t t t t e r t t t t 8.E V 9.G V y V t t t t r w 5 e t t t t t t t t t t 5 w t t ",
"e 6 t g % w 4 r e r t t t t t t t e t r t t t t t t t t t t t t i =.r.7.y t =.A @.G t t e r % $ & e e r t t t t t t 5 e 5 & e t ",
"e & + g % w % % e t t t t t t e t 5 & & t t t t t t t t t t t t r 7.h a t r f A 8.e t % % e % & w % # & & t t t t t & % & & t t ",
"t t & > e e + 6 t t t t t t e & & 8 g & & & t t t t t t t t t t t t e t t t t t e t t 1 $ w & 6 $ & e w e r t t t t e & e + t 5 ",
"t t t r e e w e t t t t t t t e , + w + r $ $ t t t t t t t t t t t t t t t t t r r t t e t t t t t r r t t t t t t , + w + 5 % ",
"t t t t t t t t t t t t t t t t t > & t : X t t t t t t t t t t t t t e t t t e t t t t t t t t t t t t t t t r i h t % w t 1 > ",
"t t t t t t t t e a E E t t t t t t t t t e t t t t t t t t t t t t t E y t t t t t t t t t t t t t t h f t t h y r t t r e r t ",
"t t t t t y 7.9.U 5.9.f C r t t e t t t t t t t t t t t t t A i t t y E t t t t t t t t e t i r h >.i h 9.r H U t t t t t t t t ",
"t t t t t t e H a.h y A E y E a t t t t t t t t t t t t r e E y.G f A t t t t t t t t t t t A 7.A a.9.a U 9.3.t t t t t t t t t ",
"t t t t t t t t h i G E 7.9.a.h t t t t t t t t t t t t t t t t G i t r t t t t t t t t t t t f k y h e t U f A t t t t t t t t ",
"t t t t t t t t r r G E y e t r t t t t t t t t t t t t t t t t e r t t t t t t t t t t t t t t t r t t e y t r t t t t t t t t ",
"t t t t t t t t t e t t t t t t t t t t t t t t t t t r t t t e t t t t t t t t t t t t t t t t t t t t t t t t t t t t t t t t ",
"t t t t t t t t t t t e t t t t t t t t t t t t t t i t t t t 6 6 t t t t t t t t t t t t t t t e t t t t t t t t t t t t t t t ",
"t t t t t t t t t t t t t t t t e t t t t t t t r r 9 8 e G % % e t h r e e r r t t t t t t t t t t t t t t t t t t t t t t t t ",
"t t t t t t t t t t t t t t t t & & & t t t t t t e e % # e + 3 e % # $ & e t t t t t t t t t t t t t t t t t t t t t t h r t t ",
"t t t t t t y r t t t t e w & & 5 h & & 5 & t t t t t e + & 6 w + & t t t t t t t t t t t t t e t t t t t t t t t & & y & % & y ",
"t t e e r w & & t t t t r e 5 6 + e % 6 5 + t t t t t t e e t t e e t t t t t t t t t r t t t g & 6 t t t t t t t $ % r $ & w 3 ",
"t t & t y + w h e r t t t t t t 2 % w r + e t t t t t t t t t t t t y :.t e H E e t t e & 5 t & & t t t f y r t t e $ 5 w & % t ",
"t r + % 5 + 6 + + # w t t t t t t t e e e t t t t t t t t t t t t r e a.y.a =.7.r.V A & & # h + y % + % & & t t t t e t e e t t ",
"t t t & & e & % t e t t t t t t t t t t t r e t t t t t t t t t t t t i r.9.E r.=.r.H t t % & 5 6 + w e 8 w t t e t t t t t t t ",
"t t t t t t e t e r t t t t t t t t t t t t e y i t t t t t t t t t t r e a t t f f r t t t t r e e t e t t t t t t t t t t t t "
};
