/* XPM */
static char *_6cbfe1a4a2a42e1a16628b622dd878fU3YQWeAcrGYxPPqy[] = {
/* columns rows colors chars-per-pixel */
"64 64 8 1 ",
"  c None",
". c black",
"X c #D03800",
"o c #A06800",
"O c #D8B000",
"+ c #F8F000",
"@ c #F88058",
"# c #F8F8F8",
/* pixels */
"                                                                ",
"                                                                ",
"                                                                ",
"                                                                ",
"                                                                ",
"                                                                ",
"                                                                ",
"                                                                ",
"                                                                ",
"                                                                ",
"                                                                ",
"                                                                ",
"                                                                ",
"                                                                ",
"                                                                ",
"                                                                ",
"                                                                ",
"                                                                ",
"                                                                ",
"                             .                                  ",
"                            ..                                  ",
"                            ..                                  ",
"                           ..O.                                 ",
"                           .o+.   .                             ",
"                           .O+.  ..                             ",
"                          ..... ...                             ",
"                         .oO++O.o..      .                      ",
"                        .o++++.O+.      .+.                     ",
"                        .++++oO+o.     .++.                     ",
"                       .O++++++O.o.   .+++.                     ",
"                       .O+++++OoOO.  .++++.                     ",
"                       .++++++++OOo..++++.                      ",
"                      .o+..++++++OO.++++.                       ",
"                      .+O#.O+++++O.++++.                        ",
"                      .++oXX++++Ooo.+++O.                       ",
"                       .O+@XO++oooo..+++O.                      ",
"                        ..O.+++OOOO. .+O.                       ",
"                     .. .O.+++oOOoo..+O.                        ",
"                     .+.O+.O+.OOooo.OO..                        ",
"                     .+OO+O..++OOOo..OOo.                       ",
"                     .O+oO++++OOOo.oooo.                        ",
"                      .+..oOOOOOo......                         ",
"                       .  ......OO.                             ",
"                               ...                              ",
"                                                                ",
"                                                                ",
"                                                                ",
"                                                                ",
"                                                                ",
"                                                                ",
"                                                                ",
"                                                                ",
"                                                                ",
"                                                                ",
"                                                                ",
"                                                                ",
"                                                                ",
"                                                                ",
"                                                                ",
"                                                                ",
"                                                                ",
"                                                                ",
"                                                                ",
"                                                                "
};
