/* XPM */
static char *_1390381dea4483de4fe6a07eb01d41cD7wH5KqnSRDU7YFh[] = {
/* columns rows colors chars-per-pixel */
"64 64 8 1 ",
"  c None",
". c black",
"X c #D03800",
"o c #A06800",
"O c #D8B000",
"+ c #F8F000",
"@ c #F88058",
"# c #F8F8F8",
/* pixels */
"                                                                ",
"                                                                ",
"                                                                ",
"                                                                ",
"                                                                ",
"                                                                ",
"                                                                ",
"                                                                ",
"                                                                ",
"                                                                ",
"                                                                ",
"                                                                ",
"                                                                ",
"                                                                ",
"                                                                ",
"                                                                ",
"                                                                ",
"                                                                ",
"                                                                ",
"                                                                ",
"                              ...                               ",
"                             ....                               ",
"                            .O+.         .                      ",
"                           .O+O.        .+.                     ",
"                         ......        .++.                     ",
"                        .oO++Oo.      .+++.                     ",
"                       .O+++++Oo...  .++++.                     ",
"                      .o+++++O+++O...++++.                      ",
"                      .O++++++++o...++++.                       ",
"                      .+++++++O....++++.                        ",
"                     .o+#.++OooOo. .+++O.                       ",
"                     .++.o+++++OO.  .+++O.                      ",
"                     .+++@X+++++Oo.  .+O.                       ",
"                     .O++XX+++++oo. .+O.                        ",
"                      .O+++O++OooO..OO..                        ",
"                       .o+O++++++o. .OOo.                       ",
"                       .O+o++O++oo..ooo.                        ",
"                       .O+o++oOooO.oo..                         ",
"                       .o+o+Oo++OOo..                           ",
"                        .o+oO++OOo.                             ",
"                         .oOOOOOo.                              ",
"                         ..+Oo...                               ",
"                        .O+++O.                                 ",
"                         .....                                  ",
"                                                                ",
"                                                                ",
"                                                                ",
"                                                                ",
"                                                                ",
"                                                                ",
"                                                                ",
"                                                                ",
"                                                                ",
"                                                                ",
"                                                                ",
"                                                                ",
"                                                                ",
"                                                                ",
"                                                                ",
"                                                                ",
"                                                                ",
"                                                                ",
"                                                                ",
"                                                                "
};
