/* XPM */
static char *_d653e1e326b410edbbe715635183e33NJWbIHW8Us1d7YHE[] = {
/* columns rows colors chars-per-pixel */
"64 64 8 1 ",
"  c None",
". c black",
"X c #D03800",
"o c #A06800",
"O c #D8B000",
"+ c #F8F000",
"@ c #F88058",
"# c #F8F8F8",
/* pixels */
"                                                                ",
"                                                                ",
"                                                                ",
"                                                                ",
"                                                                ",
"                                                                ",
"                                                                ",
"                                                                ",
"                                                                ",
"                                                                ",
"                                                                ",
"                                                                ",
"                                                                ",
"                                                                ",
"                                                                ",
"                                                                ",
"                                                                ",
"                                                                ",
"                            .                                   ",
"                           ..                                   ",
"                           ..                                   ",
"                          ..O.                                  ",
"                          .o+.   .                              ",
"                          .O+.  ..                              ",
"                          .... ...                              ",
"                         ..O++O.o..      .                      ",
"                        .o++++.O+.      .+.                     ",
"                        .++++oO+O.     .++.                     ",
"                       .O+++++++.o.   .+++.                     ",
"                       .O++++++O+O.  .O+++.                     ",
"                       .++++++++++o..O+++.                      ",
"                      .o++..++++++O.O+++.                       ",
"                      .++O#.O+++++Oo+++.                        ",
"                      .O++oXX++++Oo.O++O.                       ",
"                       .O++@X+++O.o..+++O.                      ",
"                      .O.oO+++++++. ..+O.                       ",
"                    .. .o+++++Oo+++.O+O.                        ",
"                    .+.oO++++++OoOo.oOOO.                       ",
"                    .+OoO+++++++O..ooo..                        ",
"                     .+OoO+++++++Oo...                          ",
"                     .O...oO++++OOo.                            ",
"                      .   ..oOOOOo.                             ",
"                            ...oO+O.                            ",
"                              .++..                             ",
"                               ..                               ",
"                                                                ",
"                                                                ",
"                                                                ",
"                                                                ",
"                                                                ",
"                                                                ",
"                                                                ",
"                                                                ",
"                                                                ",
"                                                                ",
"                                                                ",
"                                                                ",
"                                                                ",
"                                                                ",
"                                                                ",
"                                                                ",
"                                                                ",
"                                                                ",
"                                                                "
};
