/* XPM */
static char *_1bcc46152604733f917011db6b32630agME9Fvh0r3JdGuI[] = {
/* columns rows colors chars-per-pixel */
"64 64 5 1 ",
"  c None",
". c black",
"X c #A06800",
"o c #D8B000",
"O c #F8F000",
/* pixels */
"                                                                ",
"                                                                ",
"                                                                ",
"                                                                ",
"                                                                ",
"                                                                ",
"                                                                ",
"                                                                ",
"                                                                ",
"                                                                ",
"                                                                ",
"                                                                ",
"                                                                ",
"                                                                ",
"                                                                ",
"                                                                ",
"                                                                ",
"                                                                ",
"                                                                ",
"                                                                ",
"                                                                ",
"                                       ..                       ",
"                         .            ...                       ",
"                         ..          .X..                       ",
"                         ...        .ooX.                       ",
"                         ..X........oOOX.                       ",
"                        . .oOXoOOOoXOOO.                        ",
"                       .O..OOoOOOOOoOOo.                        ",
"                       .OO.oOOOOOOOOooX.                        ",
"                       .OOO.oOOOOOOOOOo.                        ",
"                       .OOOO.OOOOOOOOOo.                        ",
"                        .OOOO.OOOOOOOOoo.                       ",
"                         .OOOO.OOOOOOooo.                       ",
"                         ..OO.OOOOOOOooX.                       ",
"                         .OO.oOOOOOoXXo..                       ",
"                        .OOOO.XoooXXXoOX.                       ",
"                         ..OoX.XXXXoOOoX.                       ",
"                         ..ooX.oOOOOXXo.                        ",
"                         .o..X.ooXXXXoo.                        ",
"                         .Xo.XX.XXXoOOX.                        ",
"                          .oO.X..OOOOo.                         ",
"                          .XoO.XX.OOoX.                         ",
"                         .o.Xo...oooX.o.                        ",
"                          ....XXXXX....                         ",
"                              .....                             ",
"                                                                ",
"                                                                ",
"                                                                ",
"                                                                ",
"                                                                ",
"                                                                ",
"                                                                ",
"                                                                ",
"                                                                ",
"                                                                ",
"                                                                ",
"                                                                ",
"                                                                ",
"                                                                ",
"                                                                ",
"                                                                ",
"                                                                ",
"                                                                ",
"                                                                "
};
