/* XPM */
static char *_1149e303bd14eb1eff78d411751afeazaHakiNzpT4YmKMK[] = {
/* columns rows colors chars-per-pixel */
"64 64 8 1 ",
"  c None",
". c black",
"X c #D03800",
"o c #A06800",
"O c #D8B000",
"+ c #F8F000",
"@ c #F88058",
"# c #F8F8F8",
/* pixels */
"                                                                ",
"                                                                ",
"                                                                ",
"                                                                ",
"                                                                ",
"                                                                ",
"                                                                ",
"                                                                ",
"                                                                ",
"                                                                ",
"                                                                ",
"                                                                ",
"                                                                ",
"                                                                ",
"                                                                ",
"                                                                ",
"                                                                ",
"                                                                ",
"                                                                ",
"                           .                                    ",
"                          ...        .                          ",
"                          ...       .+.                         ",
"                         ..o.      .++.                         ",
"                         .OOo.    .+++.                         ",
"                         .++O.   .++++.                         ",
"                         .++O.....+O......                      ",
"                         .O+O++++OooO++O..                      ",
"                         ..++++++++++Oo..                       ",
"                         .o++++++++Oo...                        ",
"                         .O+++++++++O.                          ",
"                         .+#.+++++#.+.                          ",
"                        .o+.o+++++.o+o.                         ",
"                        .OX++++.++++XO.                         ",
"                        .oXX+++++++XXo.                         ",
"                       .O+O@++OoO++@o.                          ",
"                       .O+O+++++++++OO.                         ",
"                        ...oO++OOO+O+O..                        ",
"                         .oO+O++O++o+o..                        ",
"                         .O+ooO++++oo+O.                        ",
"                         .OoO+o+++++++O.                        ",
"                         .Oo++.++++++O.                         ",
"                          ..+O.oooOo..                          ",
"                           .Oo.....O+.                          ",
"                            ..     ..                           ",
"                                                                ",
"                                                                ",
"                                                                ",
"                                                                ",
"                                                                ",
"                                                                ",
"                                                                ",
"                                                                ",
"                                                                ",
"                                                                ",
"                                                                ",
"                                                                ",
"                                                                ",
"                                                                ",
"                                                                ",
"                                                                ",
"                                                                ",
"                                                                ",
"                                                                ",
"                                                                "
};
