/* XPM */
static char *d0dad4d242a242bce4ed8ef1eb938dde9hbNKoKjbLZ7FK9M[] = {
/* columns rows colors chars-per-pixel */
"64 64 8 1 ",
"  c None",
". c black",
"X c #D03800",
"o c #A06800",
"O c #D8B000",
"+ c #F8F000",
"@ c #F88058",
"# c #F8F8F8",
/* pixels */
"                                                                ",
"                                                                ",
"                                                                ",
"                                                                ",
"                                                                ",
"                                                                ",
"                                                                ",
"                                                                ",
"                                                                ",
"                                                                ",
"                                                                ",
"                                                                ",
"                                                                ",
"                                                                ",
"                                                                ",
"                                                                ",
"                                                                ",
"                                                                ",
"                                                                ",
"                                                                ",
"                               ...                              ",
"                               ....                             ",
"                      .         .+O.                            ",
"                     .+.        .O+O.                           ",
"                     .++.        ......                         ",
"                     .+++.      .oO++Oo.                        ",
"                     .++++.  ...oO+++++O.                       ",
"                      .++++...O+++O+++++o.                      ",
"                       .++++...o++++++++O.                      ",
"                        .++++....O+++++++.                      ",
"                       .O+++. .oOooO++.#+o.                     ",
"                      .O+++.  .OO+++++o.++.                     ",
"                       .O+.  .oO+++++X@+++.                     ",
"                        .O+. .oo+++++XX++O.                     ",
"                        ..OO..OooO++O+++O.                      ",
"                       .oOO. .o++++++O+o.                       ",
"                        .ooo..oo++O++o+O.                       ",
"                         ..oo.OooOo++o+O.                       ",
"                           ..oOO++oO+o+o.                       ",
"                             .oOO++Oo+o.                        ",
"                              .oOOOOOo.                         ",
"                               ...oO+..                         ",
"                                 .O+++O.                        ",
"                                  .....                         ",
"                                                                ",
"                                                                ",
"                                                                ",
"                                                                ",
"                                                                ",
"                                                                ",
"                                                                ",
"                                                                ",
"                                                                ",
"                                                                ",
"                                                                ",
"                                                                ",
"                                                                ",
"                                                                ",
"                                                                ",
"                                                                ",
"                                                                ",
"                                                                ",
"                                                                ",
"                                                                "
};
