/* XPM */
static char *a594c3cd72e541698812ee19de55ab9bTM6Jc5Tc7AI0T4Bf[] = {
/* columns rows colors chars-per-pixel */
"64 64 8 1 ",
"  c None",
". c black",
"X c #D03800",
"o c #A06800",
"O c #D8B000",
"+ c #F8F000",
"@ c #F88058",
"# c #F8F8F8",
/* pixels */
"                                                                ",
"                                                                ",
"                                                                ",
"                                                                ",
"                                                                ",
"                                                                ",
"                                                                ",
"                                                                ",
"                                                                ",
"                                                                ",
"                                                                ",
"                                                                ",
"                                                                ",
"                                                                ",
"                                                                ",
"                                                                ",
"                                                                ",
"                                                                ",
"                                                                ",
"                                     .                          ",
"                       ..           .+.                         ",
"                       ...         .++.                         ",
"                       ...        .+++.                         ",
"                       .o+.      .++++.                         ",
"                       .O+o.    .+.......                       ",
"                       .o++.......ooO+O..                       ",
"                        .++O+++++O+++O..                        ",
"                        .O+++++++++Oo.                          ",
"                        .o++++++++Oo.                           ",
"                        .O+++++++++O.                           ",
"                        .+#.+++++#.+.                           ",
"                       .o+.o+++++.o+o.                          ",
"                       .OX++++.++++XO.                          ",
"                       .oXX+++++++XXo.                          ",
"                        .o@++OoO++@o.                           ",
"                        .O+O+++++O+O.                           ",
"                       .o++++OOO++++o.                          ",
"                       .O+O+++O+++O+O.                          ",
"                       .++o+++++++o++.                          ",
"                       .+o+++++++++o+.                          ",
"                        .O+++++++++O..                          ",
"                        .oO+OoooO+Oo.                           ",
"                       .++o.......o++.                          ",
"                        ...       ...                           ",
"                                                                ",
"                                                                ",
"                                                                ",
"                                                                ",
"                                                                ",
"                                                                ",
"                                                                ",
"                                                                ",
"                                                                ",
"                                                                ",
"                                                                ",
"                                                                ",
"                                                                ",
"                                                                ",
"                                                                ",
"                                                                ",
"                                                                ",
"                                                                ",
"                                                                ",
"                                                                "
};
