/* XPM */
static char *_bdc49ada778423bbff93844e8c8fc2duOtORTPUEyHowF17[] = {
/* columns rows colors chars-per-pixel */
"64 64 8 1 ",
"  c None",
". c black",
"X c #D03800",
"o c #A06800",
"O c #D8B000",
"+ c #F8F000",
"@ c #F88058",
"# c #F8F8F8",
/* pixels */
"                                                                ",
"                                                                ",
"                                                                ",
"                                                                ",
"                                                                ",
"                                                                ",
"                                                                ",
"                                                                ",
"                                                                ",
"                                                                ",
"                                                                ",
"                                                                ",
"                                                                ",
"                                                                ",
"                                                                ",
"                                                                ",
"                                                                ",
"                                                                ",
"                                  .                             ",
"                                  ..                            ",
"                                  ..                            ",
"                                 .O..                           ",
"                             .   .+o.                           ",
"                             ..  .+O.                           ",
"                             ... ....                           ",
"                     .      ..o.O++O..                          ",
"                    .+.      .+O.++++o.                         ",
"                    .++.     .O+Oo++++.                         ",
"                    .+++.   .o.+++++++O.                        ",
"                    .+++O.  .O+O++++++O.                        ",
"                     .+++O..o++++++++++.                        ",
"                      .+++O.O++++++..++o.                       ",
"                       .+++oO+++++O.#O++.                       ",
"                      .O++O.oO++++XXo++O.                       ",
"                     .O+++..o.O+++X@++O.                        ",
"                      .O+.. .+++++++Oo.O.                       ",
"                       .O+O.+++oO+++++o. ..                     ",
"                      .OOOo.oOoO++++++Oo.+.                     ",
"                       ..ooo..O+++++++OoO+.                     ",
"                         ...oO+++++++OoO+.                      ",
"                           .oOO++++Oo...O.                      ",
"                            .oOOOOo..   .                       ",
"                           .O+Oo...                             ",
"                            ..++.                               ",
"                              ..                                ",
"                                                                ",
"                                                                ",
"                                                                ",
"                                                                ",
"                                                                ",
"                                                                ",
"                                                                ",
"                                                                ",
"                                                                ",
"                                                                ",
"                                                                ",
"                                                                ",
"                                                                ",
"                                                                ",
"                                                                ",
"                                                                ",
"                                                                ",
"                                                                ",
"                                                                "
};
