/* XPM */
static char *result[] = {
/* columns rows colors chars-per-pixel */
"64 64 8 1 ",
"  c black",
". c #D03800",
"X c #A06800",
"o c #D8B000",
"O c #F8F000",
"+ c #F88058",
"@ c #F8F8F8",
"# c None",
/* pixels */
"################################################################",
"################################################################",
"################################################################",
"################################################################",
"################################################################",
"################################################################",
"################################################################",
"################################################################",
"################################################################",
"################################################################",
"################################################################",
"################################################################",
"################################################################",
"################################################################",
"################################################################",
"################################################################",
"################################################################",
"################################################################",
"################################################################",
"################################################################",
"####################################### ########################",
"###################################### O #######################",
"#######################  #############   #######################",
"#######################    ########## X  #######################",
"#######################   X  ######  oOo #######################",
"######################## XOOo      XoOOX #######################",
"########################  OOOoOOOOOoOOo ########################",
"######################### XOOOOOOOOOOOX ########################",
"########################## XOOOOOOOOOX #########################",
"########################## oOOOOOOOOOo #########################",
"########################## O@ OOOOO@ O #########################",
"######################### XO XOOOOO XOX ########################",
"######################### o.OOOO OOOO.o ########################",
"######################### X..OOOOOOO..X ########################",
"########################## X+OOoXoOO+X  ########################",
"########################## ooOOOOOOOOOOo #######################",
"#########################  oOoOoooOOoXoOo ######################",
"#########################  XOXOOoOOoOoX  #######################",
"######################### oOXXOOOOoXXOo ########################",
"######################### oOOOOOOOXOoXo ########################",
"########################## oOOOOOOXOOXo ########################",
"###########################  XoXXX oo  #########################",
"########################### Oo     Xo ##########################",
"############################  #####  ###########################",
"################################################################",
"################################################################",
"################################################################",
"################################################################",
"################################################################",
"################################################################",
"################################################################",
"################################################################",
"################################################################",
"################################################################",
"################################################################",
"################################################################",
"################################################################",
"################################################################",
"################################################################",
"################################################################",
"################################################################",
"################################################################",
"################################################################",
"################################################################"
};
