/* XPM */
static char *f2e5fb732c454da49fe4dfbea083e4a9N6PJSga15G2sz4qn[] = {
/* columns rows colors chars-per-pixel */
"64 64 8 1 ",
"  c None",
". c black",
"X c #D03800",
"o c #A06800",
"O c #D8B000",
"+ c #F8F000",
"@ c #F88058",
"# c #F8F8F8",
/* pixels */
"                                                                ",
"                                                                ",
"                                                                ",
"                                                                ",
"                                                                ",
"                                                                ",
"                                                                ",
"                                                                ",
"                                                                ",
"                                                                ",
"                                                                ",
"                                                                ",
"                                                                ",
"                                                                ",
"                                                                ",
"                                                                ",
"                                                                ",
"                                                                ",
"                                                                ",
"                                  .                             ",
"                                  ..                            ",
"                                  ..                            ",
"                                 .O..                           ",
"                             .   .+o.                           ",
"                             ..  .+O.                           ",
"                             ... .....                          ",
"                      .      ..o.O++Oo.                         ",
"                     .+.      .+O.++++o.                        ",
"                     .++.     .o+Oo++++.                        ",
"                     .+++.   .o.O++++++O.                       ",
"                     .++++.  .OOoO+++++O.                       ",
"                      .++++..oOO++++++++.                       ",
"                       .++++.OO++++++..+o.                      ",
"                        .++++.O+++++O.#O+.                      ",
"                       .O+++.ooO++++XXo++.                      ",
"                      .O+++..oooo++OX@+O.                       ",
"                       .O+. .OOOO+++.O..                        ",
"                        .O+..ooOOo+++.O. ..                     ",
"                        ..OO.oooOO.+O.+O.+.                     ",
"                       .oOO..oOOO++..O+OO+.                     ",
"                        .oooo.oOOO++++Oo+O.                     ",
"                         ......oOOOOOo..+.                      ",
"                             .OO......  .                       ",
"                              ...                               ",
"                                                                ",
"                                                                ",
"                                                                ",
"                                                                ",
"                                                                ",
"                                                                ",
"                                                                ",
"                                                                ",
"                                                                ",
"                                                                ",
"                                                                ",
"                                                                ",
"                                                                ",
"                                                                ",
"                                                                ",
"                                                                ",
"                                                                ",
"                                                                ",
"                                                                ",
"                                                                "
};
