/* XPM */
static char *_1ab57dfac284f5f956e9fef269e0b751pKSIDKHYhr1LJDH[] = {
/* columns rows colors chars-per-pixel */
"64 64 5 1 ",
"  c None",
". c black",
"X c #A06800",
"o c #D8B000",
"O c #F8F000",
/* pixels */
"                                                                ",
"                                                                ",
"                                                                ",
"                                                                ",
"                                                                ",
"                                                                ",
"                                                                ",
"                                                                ",
"                                                                ",
"                                                                ",
"                                                                ",
"                                                                ",
"                                                                ",
"                                                                ",
"                                                                ",
"                                                                ",
"                                                                ",
"                                                                ",
"                              .....                             ",
"                            ..XoooX..                           ",
"                           .XOOOOOOOo..                         ",
"                         ..oOOOOOOOOOOo..                       ",
"                        ..oOOOOOOOOOOOOo...                     ",
"                       ..XooOOOOOOOOoOoX....                    ",
"                      .....OOOOOOOOOOoX.                        ",
"                         .oOOOOOOOOOOOo.                        ",
"                        ..oOOOOOOOOOOOo..                       ",
"                       .Xo.oOOOOOOOOOo.Xo.                      ",
"                       .OOoooXXXXXXoooXOO.                      ",
"                       .XOOXXXXXXXXXXoOO.                       ",
"                        .oOoOOOOOOOOOooX.                       ",
"                         .oOOoXXXXXoOOo.                        ",
"                         .ooXXXXXXXXooo.                        ",
"                         .o..ooOOOOOOoX.                        ",
"                         ..O.OOOOOOOoXX.                        ",
"                        ..OO.oOOOOOoXOX.                        ",
"                     ...oOOOX.oooooo.O.                         ",
"                     .OOOOOOO.XooXX..o.                         ",
"                     .oOOOOoOX..X..  .                          ",
"                      .OOOOXOOoX.                               ",
"                      .oOO..OOX..                               ",
"                       .O. ....                                 ",
"                       ..                                       ",
"                                                                ",
"                                                                ",
"                                                                ",
"                                                                ",
"                                                                ",
"                                                                ",
"                                                                ",
"                                                                ",
"                                                                ",
"                                                                ",
"                                                                ",
"                                                                ",
"                                                                ",
"                                                                ",
"                                                                ",
"                                                                ",
"                                                                ",
"                                                                ",
"                                                                ",
"                                                                ",
"                                                                "
};
