/* XPM */
static char *_f5a0a12d3db4405d1f5ccdcf644f599UDm2VLVltpvk0ivR[] = {
/* columns rows colors chars-per-pixel */
"64 64 194 2 ",
"   c None",
".  c #403F5F",
"X  c #5B3D55",
"o  c #673448",
"O  c #7A334D",
"+  c #73374F",
"@  c #773C56",
"#  c #4D3B64",
"$  c #513D63",
"%  c #3D415B",
"&  c #374466",
"*  c #394567",
"=  c #3B4866",
"-  c #394669",
";  c #3B486B",
":  c #374668",
">  c #59435F",
",  c #424B6E",
"<  c #464465",
"1  c #514169",
"2  c #424F71",
"3  c #4C5B7C",
"4  c #4D5D77",
"5  c #50597B",
"6  c #755D7E",
"7  c #785B78",
"8  c #724D6E",
"9  c #5D677C",
"0  c #61677E",
"q  c #62687F",
"w  c #6B6673",
"e  c #71617B",
"r  c #756576",
"t  c #9D2934",
"y  c #9E2939",
"u  c #AC242E",
"i  c #A5262F",
"p  c #B2232E",
"a  c #A42632",
"s  c #AC2432",
"d  c #A12933",
"f  c #A82734",
"g  c #B12332",
"h  c #CC313E",
"j  c #C5353D",
"k  c #DE3F37",
"l  c #E43C3D",
"z  c #E93A3D",
"x  c #DC423B",
"c  c #81344D",
"v  c #A73F4C",
"b  c #BA3B46",
"n  c #AB3D50",
"m  c #BD3F58",
"M  c #CA3241",
"N  c #C73344",
"B  c #DD3D44",
"V  c #D43E4E",
"C  c #DC3E4B",
"Z  c #DD3C53",
"A  c #EB3645",
"S  c #E43B44",
"D  c #E93944",
"F  c #EB364B",
"G  c #E33B4B",
"H  c #E8394A",
"J  c #E6374A",
"K  c #E73C51",
"L  c #90475C",
"P  c #BC434C",
"I  c #A64759",
"U  c #B74A57",
"Y  c #A35458",
"T  c #B0535C",
"R  c #9A5867",
"E  c #905575",
"W  c #AA4F67",
"Q  c #A95164",
"!  c #A55567",
"~  c #A05370",
"^  c #B24C64",
"/  c #B5606D",
"(  c #BA6779",
")  c #CB444D",
"_  c #C5434C",
"`  c #DE4043",
"'  c #D5424B",
"]  c #DA424A",
"[  c #D64243",
"{  c #CD4453",
"}  c #C44954",
"|  c #D54252",
" . c #DE4152",
".. c #D64658",
"X. c #E14443",
"o. c #E2434B",
"O. c #E9424A",
"+. c #E94247",
"@. c #E64154",
"#. c #DA717B",
"$. c #F56967",
"%. c #F7666D",
"&. c #FE706F",
"*. c #F36873",
"=. c #FA6A76",
"-. c #FA7471",
";. c #F4737A",
":. c #FA727A",
">. c #F47675",
",. c #ED6A6F",
"<. c #755E81",
"1. c #6A5981",
"2. c #546383",
"3. c #5D6685",
"4. c #556B85",
"5. c #5A6985",
"6. c #5B668A",
"7. c #566A8B",
"8. c #5A6989",
"9. c #5B6890",
"0. c #556992",
"q. c #616E8D",
"w. c #636987",
"e. c #616D91",
"r. c #6C7C94",
"t. c #6C7B9A",
"y. c #6D7493",
"u. c #817785",
"i. c #CC7483",
"p. c #F77283",
"a. c #7F8BA5",
"s. c #97899E",
"d. c #AD8195",
"f. c #808CAA",
"g. c #8693AE",
"h. c #8992AC",
"j. c #8D9AAC",
"k. c #9996A8",
"l. c #8493B3",
"z. c #8995B0",
"x. c #8B9BB3",
"c. c #8C9EBC",
"v. c #949FB7",
"b. c #969BB8",
"n. c #A99DAA",
"m. c #AD95AA",
"M. c #99A0AF",
"N. c #8EA3B9",
"B. c #94A1B6",
"V. c #9BA3B3",
"C. c #94A3BC",
"Z. c #9BA2BA",
"A. c #A5ACBA",
"S. c #ABB3BE",
"D. c #DB8B96",
"F. c #E58B8E",
"G. c #E7898D",
"H. c #E48B92",
"J. c #E0909E",
"K. c #CC98A3",
"L. c #CBACB5",
"P. c #D3A5BA",
"I. c #D1A5B2",
"U. c #EDC5BE",
"Y. c #AAB2C0",
"T. c #ABB8CD",
"R. c #B0BBC5",
"E. c #C6B9CB",
"W. c #B6C3D5",
"Q. c #B9C2D5",
"!. c #BFCCDF",
"~. c #BAC6D9",
"^. c #CFC4CE",
"/. c #C2CCD5",
"(. c #CAC6DA",
"). c #C1CCDE",
"_. c #CBCCD6",
"`. c #CCD4D3",
"'. c #E9C5C2",
"]. c #F4C7C9",
"[. c #F7C8C8",
"{. c #ECCFD4",
"}. c #FFD6D6",
"|. c #FFD5DA",
" X c #FFD9DB",
".X c #F2DFD8",
"XX c #C0CCE1",
"oX c #D7DCE6",
"OX c #FEDDE3",
"+X c #DCE5EA",
"@X c #E5E7ED",
"#X c #F0E3ED",
"$X c #E4E7F2",
"%X c #E5E9F2",
/* pixels */
"                                                                                                                                ",
"                                                                                                                                ",
"                                                                                                                                ",
"                                                                                                                                ",
"                                                                                                                                ",
"                                                                                                                                ",
"                                                                                                                                ",
"                                                                                                                                ",
"                                                    $XoXoXoX+X$X                                                                ",
"                                                    E.k.k.k.V./.(.(.(._.`.                                                      ",
"                                    ].[.'.'.'.U.'.].K.d.d.d.m.L.P.P.P.I.L.{.OX[.[.[.[.[.U..X                                    ",
"                                  OXT _ a t t t b ) { { { { V Z G ' B B ..,.>.] Z K | ] ) D.                                    ",
"                                  OXU ] g s a s M C S S B k F F S k k B K %.&.+.H F J D J F.                                    ",
"                                  |.} B p a a s h S D z z l A F S x k B G %.-.X.k G S z A G.                                    ",
"                                  |.} C g a d f N S D z D D D S B P P V @.*.;.X.B C S D A F.                                    ",
"                                  |.} V g y y a N G S S G F B G m + @ U  .*.p.o.B ] S S D F.                                    ",
"                                  |.} C g a d s M H A S G S B V I X X ^ ..,.>.o.] C S l D F.                                    ",
"                                   X} C g a a s h H F S B ` b c 1 % # 7 ~ #.>.O.H H H ` X.F.                                    ",
"                                   X} ] s a d s M D S B ] C n o . * , 1.E i.;.O.A F F ` S H.                                    ",
"                                  }._ ] s a a s M S D S S J _ I 8 1 1 E T #.:.o.D D D C G H.                                    ",
"                                  }.) C p i a u h S D l l l l G b o o P o.$.-.O.D D D S F F.                                    ",
"                                  }.} ` p f a s j S D D z l l l ' v n V o.$.-.o.X.x l D D F.                                    ",
"                                  |.{ ] p i a f j S D D D S X.B S ' V K ] %.:.O.S x l z A G.                                    ",
"                                  |.U ` p i i u j ` S S D S o.S S S B J o.%.:.@.S ] B D F G.                                    ",
"                                   XU ) s d t d b ) [ ` ]  .C G S [ x ]  .*.;.Z G ' | K Z H.                                    ",
"                                  #XR ! O O + O L Q ! W W Q W W Q Y Y / ( D.J.i.( T R Q W K.                                    ",
"                                  #Xr 6 # # # $ 8 6 <.6 e r e <.e r r s.n.E.E.M.k.y.w 7 7 m.                                    ",
"                                  $X0 5.- - - - 3 5.w.8.7.4.7.9.8.5.q.l.c.W.!.B.x.r.4.4.3.b.                                    ",
"                                  $X9 4.: & & = 4 4.4.4.4.4.7.0.6.w.q.l.N.W./.C.b.t.6.0.8.b.                                    ",
"                                  $Xq 8.= : & = 3 8.8.5.5.5.8.8.7.8.q.g.c.Q.).C.x.r.6.9.6.A.                                    ",
"                                  %Xq 6.; : : = 3 8.8.8.5.8.8.8.8.8.q.l.b.Q.XXC.x.r.8.9.6.V.                                    ",
"                                  %Xq 6.; : & = 3 8.8.8.5.4.8.8.8.8.q.z.b.Q.).C.x.r.8.9.6.V.                                    ",
"                                  %X0 6.- : & - 3 5.8.8.8.5.8.8.7.6.q.g.B.W.XXC.x.r.7.9.6.V.                                    ",
"                                  %X0 6.; : & = 3 5.q.5.8.5.5.8.8.8.q.l.v.W.XXC.x.r.8.6.6.V.                                    ",
"                                  %X0 3.; = & - 3 8.8.8.8.5.8.8.7.8.9.z.b.Q.).C.x.r.6.9.6.V.                                    ",
"                                  %Xw.6.- & & - 3 8.8.8.8.5.8.8.8.8.e.z.B.Q.XXC.x.r.4.9.6.Z.                                    ",
"                                  %Xw.3.; = & : 3 5.8.8.8.5.5.8.8.7.q.z.c.Q.).C.x.a.4 0.6.V.                                    ",
"                                  %X0 6.- & & - 3 8.8.8.8.5.8.8.8.7.q.g.b.Q.).C.x.q.4.7.6.V.                                    ",
"                                  %Xq 6.; = ; = 3 8.8.8.8.5.8.8.7.8.q.g.B.Q.).C.x.a.6.9.6.V.                                    ",
"                                  %X0 6.; : : = 3 8.8.5.8.5.4.8.8.8.q.g.B.Q.).C.x.r.8.9.6.V.                                    ",
"                                  %Xq 6.- = & - 3 8.8.8.8.4.4.8.8.8.q.h.B.W.!.C.x.q.4.7.6.Z.                                    ",
"                                  %Xq 6.; = & - 4 8.8.8.8.5.5.8.8.8.q.h.B.~.!.C.x.a.7.9.6.V.                                    ",
"                                  %Xq 6.- * & - 3 8.8.5.8.5.7.5.8.8.q.h.B.W.!.C.x.r.8.6.6.V.                                    ",
"                                  %Xq 6.; : & : 3 8.8.8.8.5.5.q.8.8.q.l.B.W.XXC.x.r.7.9.6.V.                                    ",
"                                  $X0 6.; * & - 3 5.8.8.8.8.7.8.8.8.q.z.c.Q.XXC.x.r.4.9.6.V.                                    ",
"                                  @Xw.3.; * & - 3 8.8.8.8.8.8.8.8.8.e.z.v.W.XXC.x.r.6.9.6.V.                                    ",
"                                  %Xw.5.- & & = 3 8.8.5.8.5.8.4.2.2.6.f.g.Q.XXC.x.r.7.9.6.V.                                    ",
"                                  %Xq 6.; : & - 3 8.8.8.8.5.3 2 ; ; 2 6.r.T.).C.x.r.4.9.6.V.                                    ",
"                                  %Xw.6.- = & - 3 6.6.7.8.8.3 ; ; ; ; 3.r.T.XXC.x.r.7.8.6.V.                                    ",
"                                  $X0 6.- & & - 2.2.8.6.8.8.4.2.4.2.5.a.j.W.).B.x.r.5.6.3.V.                                    ",
"                                  $X0 5.- & & = 3 8.8.8.8.4.4.8.8.8.q.h.M.W./.B.z.r.4.6.3.Z.                                    ",
"                                  $X0 3.= = & & 3 8.8.8.8.8.8.8.8.8.q.h.B.W.XXc.x.t.6.8.8.Z.                                    ",
"                                  %X0 3.* * * * 3 8.6.8.8.8.6.8.6.6.e.l.B.~.XXC.c.t.6.6.3.Z.                                    ",
"                                  %X0 6.< * * ; 5 6.6.6.6.6.5.8.6.6.q.z.b.Q.XXC.z.t.8.6.w.V.                                    ",
"                                  @X0 3., . = ; 5 w.6.6.8.w.9 5.9 w.w.h.v.Q.).B.j.r.3.9 9 V.                                    ",
"                                    S.S.k.b.k.V.A.Y.Y.Y.Y.Y.S.S.S.S.S././.+X@X/./.R.S.S.S._.                                    ",
"                                                                                                                                ",
"                                                                                                                                ",
"                                                                                                                                ",
"                                                                                                                                ",
"                                                                                                                                ",
"                                                                                                                                ",
"                                                                                                                                ",
"                                                                                                                                "
};
