/* XPM */
static char *dd6b75159b244393f444f47606d9fbccts2oUzMe19l9OnCr[] = {
/* columns rows colors chars-per-pixel */
"64 64 12 1 ",
"  c None",
". c black",
"X c #703800",
"o c #A05818",
"O c #B08020",
"+ c #D88018",
"@ c #D8B000",
"# c #F8F000",
"$ c #F8A840",
"% c #D0B860",
"& c #F8F098",
"* c #F8F8F8",
/* pixels */
"                                                                ",
"                                                                ",
"                                                                ",
"                                                                ",
"                                                                ",
"                                                                ",
"                                                                ",
"                                                                ",
"                                                                ",
"                                                                ",
"                                                                ",
"                                                                ",
"                                                                ",
"                                                                ",
"                                                                ",
"                                                                ",
"                                                                ",
"                                                                ",
"                                                                ",
"                   .....                 .....                  ",
"                    .ooX..             ..Xoo.                   ",
"                     .@@oX..         ..Xo@@.                    ",
"                      .#@oXX.       .XXo@#.                     ",
"                       .#@oX.........Xo@#.                      ",
"                       .##o.Xo+$$$+oX.o##.                      ",
"                     ..@#@oX+$$$$$$$+Xo@#@..                    ",
"                    .  .oX.+$$$$$$$$$+.Xo.  .                   ",
"                     .  ..o+$$$$$$$$$+o..  .                    ",
"                         .+$$+$$$$$+$$+.                        ",
"                         .+$.*+$$$+*.$+.                        ",
"                         .#@X.$$$$$.X@#..                       ",
"                         .##@$$$.$$$@##.X.                      ",
"                          .#@$$$$$$$@#. .X.                     ",
"                     ..   .o$$$+o+$$$o. .X.                     ",
"                     .#.  .+++$$$$$+++.  .X.                    ",
"                   . .#@..o$$$&***&$$+o. .X.                    ",
"                  .#. .#..$$o&*****&o$+. .X.                    ",
"                 .##@..#@.o$.*******.$o..X.                     ",
"                  .###@@.+.o.&*****&.o.+..                      ",
"                   .###@.$+.+%&&*&&%+.+$.                       ",
"                    .##..o$+oXO%%%OXo+$o.                       ",
"                     ..  .XoXo.....oXoX.                        ",
"                        .+$+o.     .o+$+.                       ",
"                       .XXo..       ..oXX.                      ",
"                       ....           ...                       ",
"                                                                ",
"                                                                ",
"                                                                ",
"                                                                ",
"                                                                ",
"                                                                ",
"                                                                ",
"                                                                ",
"                                                                ",
"                                                                ",
"                                                                ",
"                                                                ",
"                                                                ",
"                                                                ",
"                                                                ",
"                                                                ",
"                                                                ",
"                                                                ",
"                                                                "
};
