/* XPM */
static char *result[] = {
/* columns rows colors chars-per-pixel */
"64 64 2 1 ",
"  c black",
". c #A4ABA8",
/* pixels */
"           .....................................................",
"           .....................................................",
"           .....................................................",
"           .....................................................",
"           .....................................................",
"           .....................................................",
"           .....................................................",
"           .....................................................",
"           .....................................................",
"           .....................................................",
"           .....................................................",
"           .....................................................",
"           .....................................................",
"           .....................................................",
"           .....................................................",
"           .....................................................",
"           .....................................................",
"           .....................................................",
"           .....................................................",
"           .....................................................",
"           .....................................................",
"           .....................................................",
"           .....................................................",
"           .....................................................",
"           .....................................................",
"           .....................................................",
"           .....................................................",
"           .....................................................",
"           .....................................................",
"           .....................................................",
"           .....................................................",
"           .....................................................",
"           .....................................................",
"           .....................................................",
"           .....................................................",
"           .....................................................",
"           .....................................................",
"           .....................................................",
"           .....................................................",
"           .....................................................",
"           .....................................................",
"           .....................................................",
"           .....................................................",
"           .....................................................",
"           .....................................................",
"           .....................................................",
"           .....................................................",
"           .....................................................",
"           .....................................................",
"           .....................................................",
"           .....................................................",
"           .....................................................",
"           .....................................................",
"           .....................................................",
"           .....................................................",
"           .....................................................",
"           .....................................................",
"           .....................................................",
"           .....................................................",
"           .....................................................",
"           .....................................................",
"           .....................................................",
"           .....................................................",
"           ....................................................."
};
