/* XPM */
static char *_948e579db2f4fcaf152b5005dfdb428X6AkwaccnOpo7FoM[] = {
/* columns rows colors chars-per-pixel */
"64 64 11 1 ",
"  c None",
". c #312F27",
"X c #0C6329",
"o c #0E7030",
"O c #474337",
"+ c #5A5748",
"@ c #796857",
"# c #108239",
"$ c #109631",
"% c #42AA52",
"& c #4ABE52",
/* pixels */
"                                                                ",
"                              oooo                              ",
"                         XXXXo$$$$oXXXX                         ",
"                        X#$$#$$$$$$#$$#X                        ",
"                     XXX$$$$$$$$$$$$$$$$XXX                     ",
"                    X$$o$$%%$#%%%%#$%%$$o$$X                    ",
"                   X$$$$$%%%%%%%%%%%%%%$$$$$X                   ",
"                   X$$$##%%%%&&%%&&%%%%##$$$X                   ",
"                  X$$$#%%%%&&&&&&&&&&%%%%#$$$X                  ",
"               XXXX#$$$%%%%&&&&&&&&&&%%%%$$$#XXXX               ",
"              X#$$$$#%%%%%%%&&&&&&&&%%%%%%%#$$$$#X              ",
"             X$$$$$$%%%%%%%&&&&&&&&&&%%%%%%%$$$$$$X             ",
"             X$$$$$$%%%%%%%&&&&&&&&&&%%%%%%%$$$$$$X             ",
"          XXX##$$$$$%%%%%%%%&&&%%&&&%%%%%%%%$$$$$##XXX          ",
"         Xo##o##$$$$#%%%%%%%%%%%%%%%%%%%%%%#$$$$##o##oX         ",
"        X###o#$$$$$$$#$%%%%%%%%%%%%%%%%%%$#$$$$$$$#o###X        ",
"        Xo#o$$$$$$$$$#%%%%%%%%%%%%%%%%%%%%#$$$$$$$$$o#oX        ",
"       Xo##o$$$$$$$$$$%%%%%%%%%%%%%%%%%%%%$$$$$$$$$$o##oX       ",
"       X###o#$$$$$$$$$$%#$%%%%%%%%%%%%$#%$$$$$$$$$$#o###X       ",
"       X####o##$$$$$$$$$#%%%%%%%%%%%%%%#$$$$$$$$$##o####X       ",
"        X####o$$$$$$$$$$$%%%%%%%%%%%%%%$$$$$$$$$$$o####X        ",
"      XXXXo##o$$$$$$$$$$$$%%$#%%%%#$%%$$$$$$$$$$$$o##oXXXX      ",
"     XXoo#####o$$#$$$$$$$$$##$$$$$$##$$$$$$$$$#$$o#####ooXX     ",
"     Xoo#######oo##$$$$$$$$$$$$$$$$$$$$$$$$$$##oo#######ooX     ",
"    Xooo###########$$$$$$$$$$$$$$$$$$$$$$$$$$###########oooX    ",
"    Xoo############$$$##$$$$$$$$$$$$$$$$##$$$############ooX    ",
"    Xoo#o#########$$$$##$$$$$$$$$$$$$$$$##$$$$#########o#ooX    ",
"    XooX##########$$$$$$$$$$$$$$$$$$$$$$$$$$$$##########XooX    ",
"    XXoX##########$$$$$$$$$$$$$$$$$$$$$$$$$$$$##########XoXX    ",
"     XooX###oo#####$$$$$$$$$$$$$$$$$$$$$$$$$$#####oo###XooX     ",
"     XoXo###oo#######$$$$$$$$$$$$$$$$$$$$$$#######oo###oXoX     ",
"     XoX############o$$$$$$$$$$$$$$$$$$$$$$o############XoX     ",
"    XXoX############o#$o$$$$$$$$$$$$$$$$o$#o############XoXX    ",
"    XoooX#o###o######oo#$$$$$$$$$$$$$$$$#oo######o###o#XoooX    ",
"    XooooX###oX##########$$$o$$$$$$o$$$##########Xo###XooooX    ",
"    XoooooXXXXoX#o###########o$$$$o###########o#XoXXXXoooooX    ",
"    XoooooooooooXXX##########################XXXoooooooooooX    ",
"     XooXoooooooooXo########################oXoooooooooXooX     ",
"      XXooooooooooo##########################oooooooooooXX      ",
"      Xoooooooooooo##########################ooooooooooooX      ",
"      XoXooooooooooXo######################oXooooooooooXoX      ",
"      XXoooooXoooooX########################XoooooXoooooXX      ",
"       XooooXoooooooX##o################o##XoooooooXooooX       ",
"       XXoooXooooooooXXX####o######o####XXXooooooooXoooXX       ",
"        XXXXXooooXoooooXo##oX######Xo##oXoooooXooooXXXXX        ",
"         XXXXXooXXooooooXXXXX######XXXXXooooooXXooXXXXX         ",
"             XXXXXXooooooooooX####XooooooooooXXXXXX             ",
"              XX..XooooXooooooooooooooooXooooX..XX              ",
"               .O+.XoooXooooooooooooooooXoooX.+O.               ",
"               .++.XXXXXXXooXooooooXooXXXXXXX.++.               ",
"               .+++.XXX.XXXXXXooooXXXXXX.XXX.+++.               ",
"                .O+O....XXXXXXXXXXXXXXXX....O+O.                ",
"                 ...OO+@.XX..XXXXXX..XX.@+OO...                 ",
"                    .O@@+..+O.XXXX.O+..+@@O.                    ",
"                    .+@++O++O+....+O++O++@+.                    ",
"                    .+@+OO+++@++++@+++OO+@+.                    ",
"                    .++OO++++@@@@@@++++OO++.                    ",
"                     ..O.+++++@@@@+++++.O..                     ",
"                       ..+++O+OOOO+O+++..                       ",
"                         O++O......O++O                         ",
"                          O..      ..O                          ",
"                                                                ",
"                                                                ",
"                                                                "
};
