/* XPM */
static char *result[] = {
/* columns rows colors chars-per-pixel */
"64 64 11 1 ",
"  c #312F27",
". c #0C6329",
"X c #0E7030",
"o c #474337",
"O c #5A5748",
"+ c #796857",
"@ c #108239",
"# c #109631",
"$ c #42AA52",
"% c #4ABE52",
"& c None",
/* pixels */
"&&&&&&&&&&&&&&&&&&&&&&&&&&&&&&&&&&&&&&&&&&&&&&&&&&&&&&&&&&&&&&&&",
"XX&&&&&&&&&&&&&&&&&&&&&&&&&&&&&&&&&&&&&&&&&&&&&&&&&&&&&&&&&&&&&&",
"##X....&&&&&&&&&&&&&&&&&&&&&&&&&&&&&&&&&&&&&&&&&&&&&&&&&&&&&&&XX",
"###@##@.&&&&&&&&&&&&&&&&&&&&&&&&&&&&&&&&&&&&&&&&&&&&&&&&&....X##",
"########...&&&&&&&&&&&&&&&&&&&&&&&&&&&&&&&&&&&&&&&&&&&&&.@##@###",
"$$@#$$##X##.&&&&&&&&&&&&&&&&&&&&&&&&&&&&&&&&&&&&&&&&&...########",
"$$$$$$$#####.&&&&&&&&&&&&&&&&&&&&&&&&&&&&&&&&&&&&&&&.##X##$$#@$$",
"$%%$$$$@@###.&&&&&&&&&&&&&&&&&&&&&&&&&&&&&&&&&&&&&&.#####$$$$$$$",
"%%%%%$$$$@###.&&&&&&&&&&&&&&&&&&&&&&&&&&&&&&&&&&&&&.###@@$$$$%%$",
"%%%%%$$$$###@....&&&&&&&&&&&&&&&&&&&&&&&&&&&&&&&&&.###@$$$$%%%%%",
"%%%%$$$$$$$@####@.&&&&&&&&&&&&&&&&&&&&&&&&&&&&&....@###$$$$%%%%%",
"%%%%%$$$$$$$######.&&&&&&&&&&&&&&&&&&&&&&&&&&&.@####@$$$$$$$%%%%",
"%%%%%$$$$$$$######.&&&&&&&&&&&&&&&&&&&&&&&&&&.######$$$$$$$%%%%%",
"$%%%$$$$$$$$#####@@...&&&&&&&&&&&&&&&&&&&&&&&.######$$$$$$$%%%%%",
"$$$$$$$$$$$@####@@X@@X.&&&&&&&&&&&&&&&&&&&...@@#####$$$$$$$$%%%$",
"$$$$$$$$$#@#######@X@@@.&&&&&&&&&&&&&&&&&.X@@X@@####@$$$$$$$$$$$",
"$$$$$$$$$$@#########X@X.&&&&&&&&&&&&&&&&.@@@X@#######@#$$$$$$$$$",
"$$$$$$$$$$##########X@@X.&&&&&&&&&&&&&&&.X@X#########@$$$$$$$$$$",
"$$$$$$#@$##########@X@@@.&&&&&&&&&&&&&&.X@@X##########$$$$$$$$$$",
"$$$$$$$@#########@@X@@@@.&&&&&&&&&&&&&&.@@@X@##########$@#$$$$$$",
"$$$$$$$###########X@@@@.&&&&&&&&&&&&&&&.@@@@X@@#########@$$$$$$$",
"$$@#$$############X@@X....&&&&&&&&&&&&&&.@@@@X###########$$$$$$$",
"###@@#########@##X@@@@@XX..&&&&&&&&&&&....X@@X############$$#@$$",
"#############@@XX@@@@@@@XX.&&&&&&&&&&..XX@@@@@X##@#########@@###",
"#############@@@@@@@@@@@XXX.&&&&&&&&&.XX@@@@@@@XX@@#############",
"########@@###@@@@@@@@@@@@XX.&&&&&&&&.XXX@@@@@@@@@@@#############",
"########@@####@@@@@@@@@X@XX.&&&&&&&&.XX@@@@@@@@@@@@###@@########",
"##############@@@@@@@@@@.XX.&&&&&&&&.XX@X@@@@@@@@@####@@########",
"##############@@@@@@@@@@.X..&&&&&&&&.XX.@@@@@@@@@@##############",
"#############@@@@@XX@@@.XX.&&&&&&&&&..X.@@@@@@@@@@##############",
"###########@@@@@@@XX@@@X.X.&&&&&&&&&&.XX.@@@XX@@@@@#############",
"###########X@@@@@@@@@@@@.X.&&&&&&&&&&.X.X@@@XX@@@@@@@###########",
"########X#@X@@@@@@@@@@@@.X..&&&&&&&&&.X.@@@@@@@@@@@@X###########",
"########@XX@@@@@@X@@@X@.XXX.&&&&&&&&..X.@@@@@@@@@@@@X@#X########",
"###X###@@@@@@@@@@.X@@@.XXXX.&&&&&&&&.XXX.@X@@@X@@@@@@XX@########",
"##X@@@@@@@@@@@X@.X....XXXXX.&&&&&&&&.XXXX.@@@X.@@@@@@@@@@###X###",
"@@@@@@@@@@@@@...XXXXXXXXXXX.&&&&&&&&.XXXXX....X.@X@@@@@@@@@@@X##",
"@@@@@@@@@@@@X.XXXXXXXXX.XX.&&&&&&&&&.XXXXXXXXXXX...@@@@@@@@@@@@@",
"@@@@@@@@@@@@@XXXXXXXXXXX..&&&&&&&&&&&.XX.XXXXXXXXX.X@@@@@@@@@@@@",
"@@@@@@@@@@@@@XXXXXXXXXXXX.&&&&&&&&&&&&..XXXXXXXXXXX@@@@@@@@@@@@@",
"@@@@@@@@@@@X.XXXXXXXXXX.X.&&&&&&&&&&&&.XXXXXXXXXXXX@@@@@@@@@@@@@",
"@@@@@@@@@@@@.XXXXX.XXXXX..&&&&&&&&&&&&.X.XXXXXXXXXX.X@@@@@@@@@@@",
"@@@@@@@@X@@.XXXXXXX.XXXX.&&&&&&&&&&&&&..XXXXX.XXXXX.@@@@@@@@@@@@",
"@@@X@@@@...XXXXXXXX.XXX..&&&&&&&&&&&&&&.XXXX.XXXXXXX.@@X@@@@@@@@",
"@@@.X@@X.XXXXX.XXXX.....&&&&&&&&&&&&&&&..XXX.XXXXXXXX...@@@@X@@@",
"@@@.....XXXXXX..XX.....&&&&&&&&&&&&&&&&&.....XXXX.XXXXX.X@@X.@@@",
"@@.XXXXXXXXXX......&&&&&&&&&&&&&&&&&&&&&&.....XX..XXXXXX.....@@@",
"XXXXXXXX.XXXX.  ..&&&&&&&&&&&&&&&&&&&&&&&&&&&......XXXXXXXXXX.@@",
"XXXXXXXX.XXX. Oo &&&&&&&&&&&&&&&&&&&&&&&&&&&&&..  .XXXX.XXXXXXXX",
"XXX.XX....... OO &&&&&&&&&&&&&&&&&&&&&&&&&&&&&& oO .XXX.XXXXXXXX",
"XX...... ... OOO &&&&&&&&&&&&&&&&&&&&&&&&&&&&&& OO .......XX.XXX",
"........    oOo &&&&&&&&&&&&&&&&&&&&&&&&&&&&&&& OOO ... ......XX",
"...  .. +Ooo   &&&&&&&&&&&&&&&&&&&&&&&&&&&&&&&&& oOo    ........",
".. oO  O++o &&&&&&&&&&&&&&&&&&&&&&&&&&&&&&&&&&&&&   ooO+ ..  ...",
"  OoOOoOO+O &&&&&&&&&&&&&&&&&&&&&&&&&&&&&&&&&&&&&&&& o++O  Oo ..",
"OO+OOOooO+O &&&&&&&&&&&&&&&&&&&&&&&&&&&&&&&&&&&&&&&& O+OOoOOoO  ",
"+++OOOOooOO &&&&&&&&&&&&&&&&&&&&&&&&&&&&&&&&&&&&&&&& O+OooOOO+OO",
"++OOOOO o  &&&&&&&&&&&&&&&&&&&&&&&&&&&&&&&&&&&&&&&&& OOooOOOO+++",
"ooOoOOO  &&&&&&&&&&&&&&&&&&&&&&&&&&&&&&&&&&&&&&&&&&&&  o OOOOO++",
"   oOOo&&&&&&&&&&&&&&&&&&&&&&&&&&&&&&&&&&&&&&&&&&&&&&&&  OOOoOoo",
"&&&  o&&&&&&&&&&&&&&&&&&&&&&&&&&&&&&&&&&&&&&&&&&&&&&&&&&&oOOo   ",
"&&&&&&&&&&&&&&&&&&&&&&&&&&&&&&&&&&&&&&&&&&&&&&&&&&&&&&&&&&o  &&&",
"&&&&&&&&&&&&&&&&&&&&&&&&&&&&&&&&&&&&&&&&&&&&&&&&&&&&&&&&&&&&&&&&",
"&&&&&&&&&&&&&&&&&&&&&&&&&&&&&&&&&&&&&&&&&&&&&&&&&&&&&&&&&&&&&&&&"
};
