/* XPM */
static char *result[] = {
/* columns rows colors chars-per-pixel */
"64 64 11 1 ",
"  c #312F27",
". c #0C6329",
"X c #0E7030",
"o c #474337",
"O c #5A5748",
"+ c #796857",
"@ c #108239",
"# c #109631",
"$ c #42AA52",
"% c #4ABE52",
"& c None",
/* pixels */
"&&&&..X.@@@@@@@@@@@@X@#X################X#@X@@@@@@@@@@@@.X..&&&&",
"&&&&.XXX.@X@@@X@@@@@@XX@################@XX@@@@@@X@@@X@.XXX.&&&&",
"&&&&.XXXX.@@@X.@@@@@@@@@@###X######X###@@@@@@@@@@.X@@@.XXXX.&&&&",
"&&&&.XXXXX....X.@X@@@@@@@@@@@X####X@@@@@@@@@@@X@.X....XXXXX.&&&&",
"&&&&.XXXXXXXXXXX...@@@@@@@@@@@@@@@@@@@@@@@@@@...XXXXXXXXXXX.&&&&",
"&&&&&.XX.XXXXXXXXX.X@@@@@@@@@@@@@@@@@@@@@@@@X.XXXXXXXXX.XX.&&&&&",
"&&&&&&..XXXXXXXXXXX@@@@@@@@@@@@@@@@@@@@@@@@@@XXXXXXXXXXX..&&&&&&",
"&&&&&&.XXXXXXXXXXXX@@@@@@@@@@@@@@@@@@@@@@@@@@XXXXXXXXXXXX.&&&&&&",
"&&&&&&.X.XXXXXXXXXX.X@@@@@@@@@@@@@@@@@@@@@@X.XXXXXXXXXX.X.&&&&&&",
"&&&&&&..XXXXX.XXXXX.@@@@@@@@@@@@@@@@@@@@@@@@.XXXXX.XXXXX..&&&&&&",
"&&&&&&&.XXXX.XXXXXXX.@@X@@@@@@@@@@@@@@@@X@@.XXXXXXX.XXXX.&&&&&&&",
"&&&&&&&..XXX.XXXXXXXX...@@@@X@@@@@@X@@@@...XXXXXXXX.XXX..&&&&&&&",
"&&&&&&&&.....XXXX.XXXXX.X@@X.@@@@@@.X@@X.XXXXX.XXXX.....&&&&&&&&",
"&&&&&&&&&.....XX..XXXXXX.....@@@@@@.....XXXXXX..XX.....&&&&&&&&&",
"&&&&&&&&&&&&&......XXXXXXXXXX.@@@@.XXXXXXXXXX......&&&&&&&&&&&&&",
"&&&&&&&&&&&&&&..  .XXXX.XXXXXXXXXXXXXXXX.XXXX.  ..&&&&&&&&&&&&&&",
"&&&&&&&&&&&&&&& oO .XXX.XXXXXXXXXXXXXXXX.XXX. Oo &&&&&&&&&&&&&&&",
"&&&&&&&&&&&&&&& OO .......XX.XXXXXX.XX....... OO &&&&&&&&&&&&&&&",
"&&&&&&&&&&&&&&& OOO ... ......XXXX...... ... OOO &&&&&&&&&&&&&&&",
"&&&&&&&&&&&&&&&& oOo    ................    oOo &&&&&&&&&&&&&&&&",
"&&&&&&&&&&&&&&&&&   ooO+ ..  ......  .. +Ooo   &&&&&&&&&&&&&&&&&",
"&&&&&&&&&&&&&&&&&&&& o++O  Oo .... oO  O++o &&&&&&&&&&&&&&&&&&&&",
"&&&&&&&&&&&&&&&&&&&& O+OOoOOoO    OoOOoOO+O &&&&&&&&&&&&&&&&&&&&",
"&&&&&&&&&&&&&&&&&&&& O+OooOOO+OOOO+OOOooO+O &&&&&&&&&&&&&&&&&&&&",
"&&&&&&&&&&&&&&&&&&&& OOooOOOO++++++OOOOooOO &&&&&&&&&&&&&&&&&&&&",
"&&&&&&&&&&&&&&&&&&&&&  o OOOOO++++OOOOO o  &&&&&&&&&&&&&&&&&&&&&",
"&&&&&&&&&&&&&&&&&&&&&&&  OOOoOooooOoOOO  &&&&&&&&&&&&&&&&&&&&&&&",
"&&&&&&&&&&&&&&&&&&&&&&&&&oOOo      oOOo&&&&&&&&&&&&&&&&&&&&&&&&&",
"&&&&&&&&&&&&&&&&&&&&&&&&&&o  &&&&&&  o&&&&&&&&&&&&&&&&&&&&&&&&&&",
"&&&&&&&&&&&&&&&&&&&&&&&&&&&&&&&&&&&&&&&&&&&&&&&&&&&&&&&&&&&&&&&&",
"&&&&&&&&&&&&&&&&&&&&&&&&&&&&&&&&&&&&&&&&&&&&&&&&&&&&&&&&&&&&&&&&",
"&&&&&&&&&&&&&&&&&&&&&&&&&&&&&&&&&&&&&&&&&&&&&&&&&&&&&&&&&&&&&&&&",
"&&&&&&&&&&&&&&&&&&&&&&&&&&&&&&&&&&&&&&&&&&&&&&&&&&&&&&&&&&&&&&&&",
"&&&&&&&&&&&&&&&&&&&&&&&&&&&&&&XXXX&&&&&&&&&&&&&&&&&&&&&&&&&&&&&&",
"&&&&&&&&&&&&&&&&&&&&&&&&&....X####X....&&&&&&&&&&&&&&&&&&&&&&&&&",
"&&&&&&&&&&&&&&&&&&&&&&&&.@##@######@##@.&&&&&&&&&&&&&&&&&&&&&&&&",
"&&&&&&&&&&&&&&&&&&&&&...################...&&&&&&&&&&&&&&&&&&&&&",
"&&&&&&&&&&&&&&&&&&&&.##X##$$#@$$$$@#$$##X##.&&&&&&&&&&&&&&&&&&&&",
"&&&&&&&&&&&&&&&&&&&.#####$$$$$$$$$$$$$$#####.&&&&&&&&&&&&&&&&&&&",
"&&&&&&&&&&&&&&&&&&&.###@@$$$$%%$$%%$$$$@@###.&&&&&&&&&&&&&&&&&&&",
"&&&&&&&&&&&&&&&&&&.###@$$$$%%%%%%%%%%$$$$@###.&&&&&&&&&&&&&&&&&&",
"&&&&&&&&&&&&&&&....@###$$$$%%%%%%%%%%$$$$###@....&&&&&&&&&&&&&&&",
"&&&&&&&&&&&&&&.@####@$$$$$$$%%%%%%%%$$$$$$$@####@.&&&&&&&&&&&&&&",
"&&&&&&&&&&&&&.######$$$$$$$%%%%%%%%%%$$$$$$$######.&&&&&&&&&&&&&",
"&&&&&&&&&&&&&.######$$$$$$$%%%%%%%%%%$$$$$$$######.&&&&&&&&&&&&&",
"&&&&&&&&&&...@@#####$$$$$$$$%%%$$%%%$$$$$$$$#####@@...&&&&&&&&&&",
"&&&&&&&&&.X@@X@@####@$$$$$$$$$$$$$$$$$$$$$$@####@@X@@X.&&&&&&&&&",
"&&&&&&&&.@@@X@#######@#$$$$$$$$$$$$$$$$$$#@#######@X@@@.&&&&&&&&",
"&&&&&&&&.X@X#########@$$$$$$$$$$$$$$$$$$$$@#########X@X.&&&&&&&&",
"&&&&&&&.X@@X##########$$$$$$$$$$$$$$$$$$$$##########X@@X.&&&&&&&",
"&&&&&&&.@@@X@##########$@#$$$$$$$$$$$$#@$##########@X@@@.&&&&&&&",
"&&&&&&&.@@@@X@@#########@$$$$$$$$$$$$$$@#########@@X@@@@.&&&&&&&",
"&&&&&&&&.@@@@X###########$$$$$$$$$$$$$$###########X@@@@.&&&&&&&&",
"&&&&&&....X@@X############$$#@$$$$@#$$############X@@X....&&&&&&",
"&&&&&..XX@@@@@X##@#########@@######@@#########@##X@@@@@XX..&&&&&",
"&&&&&.XX@@@@@@@XX@@##########################@@XX@@@@@@@XX.&&&&&",
"&&&&.XXX@@@@@@@@@@@##########################@@@@@@@@@@@XXX.&&&&",
"&&&&.XX@@@@@@@@@@@@###@@################@@###@@@@@@@@@@@@XX.&&&&",
"&&&&.XX@X@@@@@@@@@####@@################@@####@@@@@@@@@X@XX.&&&&",
"&&&&.XX.@@@@@@@@@@############################@@@@@@@@@@.XX.&&&&",
"&&&&..X.@@@@@@@@@@############################@@@@@@@@@@.X..&&&&",
"&&&&&.XX.@@@XX@@@@@##########################@@@@@XX@@@.XX.&&&&&",
"&&&&&.X.X@@@XX@@@@@@@######################@@@@@@@XX@@@X.X.&&&&&",
"&&&&&.X.@@@@@@@@@@@@X######################X@@@@@@@@@@@@.X.&&&&&"
};
